<svg id="Calque_1" data-name="Calque 1" xmlns="http://www.w3.org/2000/svg" viewBox="0 0 1497.29 2558.81"><title>Artich5</title><path d="M798.16,275.58c-8.09,29.13-11.29,51.85,4.21,79s37.34,48.87,50.56,77.73c0,.17,0,.25.06.42a117.88,117.88,0,0,1-27.94-5.17,229.13,229.13,0,0,1-29.43-11l-.42-.11a188.35,188.35,0,0,0-9.59-17.29c-4.1-6.57-9-13.28-14.22-20.11s-10.61-13.4-15.68-19.7-9.57-11.8-13.49-16.48a82.11,82.11,0,0,0-8.91-2.83L728,338.84c-1.57-.35-3.24-.65-5-.9s-4.24-.72-7.36-1.35q.09,6.15,3.36,14.82c2.18,5.78,4.74,11.84,7.19,18.19A100,100,0,0,1,731.61,388a26.2,26.2,0,0,1-1.43,15.45.7.7,0,0,0-.61.1.74.74,0,0,1-.62.11c-2.2.18-7.89-.79-17-2.52-14.08-2.68-28.28-3-42.58-3.37a1.42,1.42,0,0,1-.91-.42c.29-2,.57-7.49-1.66-16.48s-7.41-20.74-12.83-34.81c-7-18.08-10.86-31.83-7.59-49.23,3.94-20.89,23.72-41.49,37.16-60.09,15.21-21,25-39.82,24.77-64.85C708.09,151.3,704,129,705.63,107a42.54,42.54,0,0,1,6.33.74c2.27.42,5.25,1,8.94,1.74s8.45,1.68,14.25,2.84,13.34,2.43,22.62,3.88a135.45,135.45,0,0,0,7.47,17.7c3.93,7.9,9,16.82,14.61,26.75s11.82,20.53,17,31.84,8.86,22.2,9.63,32.75-.88,20.32-2.83,29.19S799.6,270.38,798.16,275.58Zm-56.58,17.18c5.1-20.46,15.3-39.42,20.1-59.74,3.34-14.13,1.68-23.93,0-29.1s-3.49-6.56-4.86-4.22-2.27,7.48-5.2,15.48-8.33,18.37-16.35,30.58c-8.64,13.16-17.3,26.28-25.19,40.05q7.08,1.86,15.26,3.43T741.58,292.76Z" transform="translate(-645.18 -97.76)" fill="#fbc27e"/><path d="M1070.83,433.84l.42-.1c-9.89,2.33-20.85,5.15-32.9,8.14a182.74,182.74,0,0,1-37.35,5.36l-.43,0c-3.67-6.2-9.57-13.64-18.1-22.3-9.44-9.57-19.64-18.59-29.75-27.46-10.52-9.23-21.1-18.8-30.66-29a162.7,162.7,0,0,1-20.24-26.43c-.26-.54-.39-.81-.64-1.35a41.42,41.42,0,0,0,.06,23.89c2.67,9.45,7.84,19.15,14,29.14s12.51,19.49,17.57,28.52,7.87,16.25,9.28,21.63c-4.41,1.61-10.55,2.29-18.27,1.86a223.26,223.26,0,0,1-23.06-2.52c-7.65-1.22-14.55-2.69-20.69-4.27s-9.91-2.44-11.3-2.49c.57.13.86-3.66-1.38-11.35s-7.06-18.11-14.52-30.44c-8.52-14.1-18-29.47-21.16-43.61-4-18,1.17-33.16,9.82-51.88,7.89-17.09,20.67-35.95,23.38-53.8,2.39-15.69.11-31.95-6.07-48.14C854.14,185,849,172.44,844.44,160c-3.76-10.3-5.51-17.44-6.62-21.24,17.25,1.52,34.51,2.88,51.7,3.68,19.76.92,39.73,2.47,59.56,3.93,17.56,1.3,31.41,3.64,47.28,9.88,14.9,5.86,30.36,15.4,41.6,26.64,10.78,10.76,21.72,23.67,24,40.21,2.69,19.9-10.74,34.83-22.65,48.83-9.94,11.23-22.76,21.78-34.79,30.17-10.76,7.52-26,14.53-39.31,16.32l-1.69.16-.43,0c-.07.17-.11.25-.19.43a58.25,58.25,0,0,0,11.81,29.27c8.08,10.43,19.35,19.93,29.8,27.7,12.39,9.21,25.13,18.69,37.48,27.85C1052.33,411.54,1064.23,422.31,1070.83,433.84ZM918.79,209A112.1,112.1,0,0,1,923,221.53a83.44,83.44,0,0,1,2.63,14.19,72.63,72.63,0,0,1,0,14.06c-.48,4.57-1.16,8.48-1.57,11.69l.43,0a185.26,185.26,0,0,0,20.86,3,78.18,78.18,0,0,0,22.08-1,25.66,25.66,0,0,0,14.64-8.88,25.22,25.22,0,0,0,6.21-14.85,28.13,28.13,0,0,0-4-15.54,32.44,32.44,0,0,0-11.95-11.94,46,46,0,0,0-26.44-7.62A91.59,91.59,0,0,0,918.79,209Z" transform="translate(-645.18 -97.76)" fill="#fbc27e"/><path d="M1227.24,103c2.12,9.29,5.67,20,10,32s7.88,23.16,9.27,33.33a70.78,70.78,0,0,0-20.31.09c-7.84,1.05-18.33,2.76-31.45,5.61l-.85.15-.43.08a.84.84,0,0,1,0,.67.83.83,0,0,0-.05.67c.1,1.46.46,3.67.94,6.65a119.32,119.32,0,0,1,1.67,14,67.6,67.6,0,0,1-3.74,25.18c-4.69,14-12.1,27.51-18.82,40.57-10.3,20-15.55,38.6-10.89,59,6.16,27,31.55,50.37,38.83,79.64l.08.43.07.42a153.76,153.76,0,0,1-16.51,4.63l-18.19,4.14q-9.12,2.09-18,4.29a103.22,103.22,0,0,0-16.36,5.42c-.41-1.05-.71-6.22-3.81-15.23-4.9-14.21-13.07-27.53-20.71-40.36-13.66-22.94-18.27-44.64-10.13-68.89,11.82-35.18,34.49-60.89,25.79-101.87l-.53-.31a35.9,35.9,0,0,0-13.54.12q-7.8,1.34-15.49,3.09c-5.11,1.16-9.8,2.28-14,3.33s-8.09,1.87-9.14,1.35c-.76-.37-2.21-3.68-4.15-8.07s-4.23-9.72-6.75-16-5.16-13.05-7.47-20.36a84.71,84.71,0,0,1-4.12-21.31c0-.28-.12-.41-.26-.37s-.23-.09-.27-.38c29.71-7.63,59.64-16.29,89.08-23A346.25,346.25,0,0,1,1227.24,103Z" transform="translate(-645.18 -97.76)" fill="#fbc27e"/><path d="M1314.69,110.3c4,1,6,1.51,10,2.58.09.68.13,1,.23,1.69,5.73,24.74,17.4,49.72,21.67,72.62,5,26.88-5.7,48.59-19.16,74.4-14,26.76-22.65,48.46-12.5,74.67,8.71,22.45,31.15,46.8,37.22,73.13-1.85,1.67-6.4,1.76-13.46.5s-14.71-2.87-23-4.64-16.2-3.27-23.83-4.49-12.83-1.28-15.57-.56c-2.21-27.65-23.39-53-32.66-76.16-10.71-26.77-1.21-49.87,12.17-77.41,12.25-25.2,22-48.16,14-75.88-6.88-23.84-15.75-46.84-18.63-72.08,0-.34,0-.51-.09-.85,1.38-.19,4.13,0,8.26.84s7.22,1.32,9.13,1.6c5,.75,10.93,2.1,17.55,3.69S1302.23,107.48,1314.69,110.3Z" transform="translate(-645.18 -97.76)" fill="#fbc27e"/><path d="M1425.1,379.13c3.34,17.63,9.3,35.4,5.75,53.51a4.86,4.86,0,0,1-.91,1.73,55.65,55.65,0,0,1-5.51-1.12c-2-.52-5-1.37-8.68-2.56l-14.51-4.63c-6-1.89-13.6-4.18-23-6.75l-.42-.12c-1.11-.34-1.36-2.22-1.33-5.63s0-7.15-.35-11.19-.82-7.83-1.33-11.38a40.52,40.52,0,0,0-1.42-6.89c-1.6-5.56-3.34-11.1-4.76-16.62a55.2,55.2,0,0,1-2-16.23,44.75,44.75,0,0,1-.42-6.88,38.16,38.16,0,0,1,2.91-14.38c2.68-6.81,8.67-16.41,19.87-28.56,15.19-16.48,32.55-31.52,46.1-49.58a57.13,57.13,0,0,0,10.64-22.31,121.44,121.44,0,0,0,2.37-22.26,52.79,52.79,0,0,0,.25-6c0-3.54-.11-8-.29-13.49s-.62-11.68-.76-18.67a121.91,121.91,0,0,1,1.2-21.62,59,59,0,0,0,13.46,4.23q7.48,1.47,15,2.43t14.68,2.38a41.87,41.87,0,0,1,12.57,4.41,22.17,22.17,0,0,0-.69,3.47c-.11.95-.28,2.25-.47,3.88a156.11,156.11,0,0,0-.18,18.92c.63,13.18,1.6,26.32,1.88,39.61a85.58,85.58,0,0,1-4.73,22c-2.67,7.26-7,14.5-12.21,21.72-12.24,15-25.83,29.29-38,43.69-10.11,11.93-21.87,25.83-25.18,42.18a62.36,62.36,0,0,0-.6,11.46A101.06,101.06,0,0,0,1425.1,379.13Z" transform="translate(-645.18 -97.76)" fill="#fbc27e"/><path d="M1615.9,221.66a6.92,6.92,0,0,0-.77,3.05,19.67,19.67,0,0,1-.39,3c-.38,1,.63,6,.93,15.11s-1.36,20.12-6.71,32.73c-5.75,13.55-13.39,26.62-20,39.7-6.85,13.55-10.61,25.57-10.56,35.26,0,8,3.81,15.6,10.14,22.56s15.89,11.39,24.61,10.8c6.15-.41,12.16-3.53,16.62-7.46s6.81-9.22,7.63-15.64c.94-7.31.7-14.64.41-21.74s1.93-14.46,6-22.07a79.47,79.47,0,0,0,13.56-3.65q7.76-2.72,15.6-5.11t15.3-4.25a57.77,57.77,0,0,1,13-1.93c-.51,14,1.9,29.53,5.81,42.88s7.07,29.65,6,43.43c-1,12.94-9.4,28.74-18.27,37.76-11.35,11.52-26.19,18.15-41.16,23.95a118.23,118.23,0,0,1-32,7.8,79.42,79.42,0,0,1-31.48-3.43c-10.27-3.23-19.93-8.92-29.93-16.45a122.28,122.28,0,0,1-27.56-29.28c-6.48-10-12.75-20.63-16.25-31.62s-3.58-23.51,1.22-37.31c5.71-16.43,15-32.13,23-47.61,10.7-20.68,13-41,7.45-60.84-1.24-4.47-3.19-9.63-3.92-14.53a91.75,91.75,0,0,1-1-13.66c0-7.11.51-14.1,2.39-20.45a47.31,47.31,0,0,1,9.67-17.43,50.52,50.52,0,0,1,9.41-6.86q5.3-3,11.22-5.72a144,144,0,0,1,39.12-13.32c12.94-2.31,25.2-3,37.23-1.38a123.5,123.5,0,0,1,35.35,10.28,117.91,117.91,0,0,1,32.11,21.31c9.42,8.88,16.76,19.73,20.18,31.42,4.2,14.36-2.81,27.67-9.46,39.94a173.62,173.62,0,0,1-32.49,11.85,249,249,0,0,1-30.4,5.46,128.84,128.84,0,0,0,3-18,36.59,36.59,0,0,0-3.4-18.2,24.66,24.66,0,0,0-11.4-11.88c-5-2.57-12.37-2.87-20-.17-3.44,1.21-7.32,3.17-11.24,5S1617.56,218.93,1615.9,221.66Z" transform="translate(-645.18 -97.76)" fill="#fbc27e"/><path d="M1911.79,109.21c6.4,26.23,19.07,50.1,25.66,76.15,7.17,28.35-1.54,48.44-13.32,74-9.75,21.18-20.5,42.32-14.51,66.31,7.49,30,31.17,54.64,41.56,83.91-4.65-.43-9.72-1.18-15.18-2.21s-10.82-2.06-16-3.11-10.31-2-15.25-2.75a106.41,106.41,0,0,0-12.46-1.33l-.42,0c-2.56-9.5-7.3-19.23-12.94-29.24s-12.2-19.91-17.79-29.75-10.49-19.69-12.81-29.6-1.87-19.49-.19-28.77l-.29-.47a86.57,86.57,0,0,0-23.93-3.37c-8.22,0-22,.67-25.7,4.19-4.45,4.18-4.93,19.93-2.59,29.5s7.17,19.12,12.77,28.62,11.55,18.83,16.26,28,10.17,23,8,27.45c-.91,1.89-7.55,3.84-13.28,4.67s-11.51,1.53-17.34,2.06-11.31,1.27-16.39,2.13-8.81,2.37-11.23,4.43c-1.61-7.76-5.88-18.56-14.11-31.8-9.3-15-19-29.7-26.31-45.39-8-17.32-4-37.4,4.34-54.52,9.26-19.12,21.13-38.28,25.42-58.72,3.87-18.43-2.28-38.23-8.77-55.82-5.74-15.56-12.17-31.75-14.47-48.41,0-.17,0-.25-.06-.42l.43-.12.87-.22a61.53,61.53,0,0,0,13.78-2.5c4.71-1.38,9.43-2.71,14.13-4s9.36-2.25,14-3a42.54,42.54,0,0,1,13.15-.23c6.15,19.14,15.88,37.3,22,56,6.32,19.19,9.09,33.61,8.34,54.21l.43,0a91.32,91.32,0,0,0,22.55.19c8.46-.83,16.32-1.15,23.58-1.18l.42,0c7.69-17.56,5.36-36.92-.72-54.53-6.41-18.55-14.61-36.48-19-55.69a59.73,59.73,0,0,1,12.07-1.63,109.88,109.88,0,0,1,15.24.44,112.94,112.94,0,0,1,15.84,2.68C1902.77,106.56,1907.53,107.89,1911.79,109.21Z" transform="translate(-645.18 -97.76)" fill="#fbc27e"/><path d="M2141.65,278.85a23.6,23.6,0,0,1,.58,9.53,48.8,48.8,0,0,1-2.37,9.79,160.31,160.31,0,0,1-7,15.36c-2.51,5.08-5.17,10.27-7.8,15.35-5.64,10.9-9.48,21.52-9.44,31.67s2.85,20.44,6.73,30.88c1.4,4,2.21,6,3.91,9.94a99.22,99.22,0,0,1,7.64,21.12c1.53,7,1.19,13.79-1.62,18.81-2.44,4.35-7.94,7.73-15,9.56a89.69,89.69,0,0,1-23.58,2.44,125.52,125.52,0,0,1-23.67-2.61,192.38,192.38,0,0,1-24.33-6.76c-5.9-2.08-11.68-4.44-17.24-6.84a129.41,129.41,0,0,1-16.06-8.35,132.4,132.4,0,0,1-14.63-10.38,125.46,125.46,0,0,1-13.08-12.84A225.26,225.26,0,0,1,1969,387c-4.44-6.11-8.8-12.14-12.38-18-10-16.47-19.43-31.83-20.25-48.13-.84-16.68,7.34-31,17.07-48.36,5.16-9.19,11.88-18.12,18.83-26.61a69.54,69.54,0,0,1,24.46-19.34,43,43,0,0,1,10-2.45,152.93,152.93,0,0,1,29.82,2.18,271.92,271.92,0,0,1,32.38,7.44c10.91,3.18,21.69,6.92,32.17,11.14s20.43,8.79,27.75,14.14C2136.4,264.57,2140.89,271.54,2141.65,278.85ZM2039.86,138.19c26.11,30.62,56.64,55.71,88,80.75-.38-.3-1.77-.34-4.17-.15s-5.71.34-9.9.34a117.47,117.47,0,0,1-14.85-1,101.91,101.91,0,0,1-19.12-4.57c-.85-.19-2.56-1.41-5.16-3.69s-5.38-4.87-8.37-7.77-5.89-5.72-8.7-8.47a61.84,61.84,0,0,0-6.82-5.94,7.12,7.12,0,0,0-3.15,2.75c-1.19,1.57-2.46,3.23-3.85,5s-2.73,3.33-4,4.72-2.57,2.13-3.52,2a35.19,35.19,0,0,1-6-1.4q-2.32-.69-6.41-2.13t-11.63-4.14q-7.53-2.72-21.77-7.94c5.23-9.92,11-18.29,19.38-25.35A333.61,333.61,0,0,1,2039.86,138.19Zm16.49,205.72a75.14,75.14,0,0,1,4.6-17c.07-.16.57-1.89,1.69-5.2s2.36-6.4,3.52-9.26a22.67,22.67,0,0,0,1.38-13.85,18.85,18.85,0,0,0-7.93-11.39,28.28,28.28,0,0,0-13.47-4.35,50.35,50.35,0,0,0-14.66.72c-10.21,2.22-19.07,6.35-24.83,12.5a63.59,63.59,0,0,0-12,18.91c-2.81,6.84-4.79,14.2-4.21,20.75.51,5.74,2.55,12.11,4.76,18.16a56.84,56.84,0,0,0,11,18.09c3.52,3.9,8.52,7.39,13.79,10.42a78.88,78.88,0,0,0,15.54,6.95,48.52,48.52,0,0,0,14,2.44c4.26,0,7.32-1,9.25-3a15.22,15.22,0,0,0,2-3.77,6.25,6.25,0,0,0-.19-3.64,51.68,51.68,0,0,0-2-5.19,34.5,34.5,0,0,1-2.15-8c-.52-3.12-.94-6-1.09-8.42s-.08-3.79-.09-4.12A45.9,45.9,0,0,1,2056.35,343.91Z" transform="translate(-645.18 -97.76)" fill="#fbc27e"/><path d="M798.16,626.56c-8.09,29.13-11.29,51.85,4.21,79s37.34,48.86,50.56,77.72c0,.17,0,.26.06.43a118.39,118.39,0,0,1-27.94-5.17,229.13,229.13,0,0,1-29.43-11l-.42-.11a187,187,0,0,0-9.59-17.29c-4.1-6.57-9-13.28-14.22-20.12s-10.61-13.4-15.68-19.7-9.57-11.8-13.49-16.48a83.84,83.84,0,0,0-8.91-2.82c-2-.46-3.77-.85-5.33-1.2s-3.24-.65-5-.9-4.24-.71-7.36-1.34q.09,6.13,3.36,14.81c2.18,5.79,4.74,11.85,7.19,18.19A100.42,100.42,0,0,1,731.61,739a26.2,26.2,0,0,1-1.43,15.45.67.67,0,0,0-.61.11.71.71,0,0,1-.62.1c-2.2.19-7.89-.78-17-2.52-14.08-2.67-28.28-3-42.58-3.36a1.38,1.38,0,0,1-.91-.43c.29-2,.57-7.48-1.66-16.47s-7.41-20.74-12.83-34.82c-7-18.08-10.86-31.83-7.59-49.23,3.94-20.88,23.72-41.49,37.16-60.09,15.21-21,25-39.82,24.77-64.85-.19-20.61-4.27-42.94-2.65-64.9a42.54,42.54,0,0,1,6.33.74c2.27.43,5.25,1,8.94,1.75s8.45,1.68,14.25,2.83,13.34,2.43,22.62,3.89a135.47,135.47,0,0,0,7.47,17.69c3.93,7.91,9,16.83,14.61,26.76s11.82,20.53,17,31.83,8.86,22.21,9.63,32.76-.88,20.32-2.83,29.19S799.6,621.35,798.16,626.56Zm-56.58,17.17c5.1-20.46,15.3-39.42,20.1-59.74,3.34-14.12,1.68-23.93,0-29.09s-3.49-6.56-4.86-4.22-2.27,7.47-5.2,15.48-8.33,18.36-16.35,30.58c-8.64,13.15-17.3,26.28-25.19,40q7.08,1.88,15.26,3.44T741.58,643.73Z" transform="translate(-645.18 -97.76)" fill="#fbc27e"/><path d="M1070.83,784.81l.42-.1c-9.89,2.34-20.85,5.16-32.9,8.15a183.43,183.43,0,0,1-37.35,5.35l-.43,0c-3.67-6.21-9.57-13.64-18.1-22.3-9.44-9.58-19.64-18.59-29.75-27.46-10.52-9.23-21.1-18.8-30.66-29A163.57,163.57,0,0,1,901.82,693c-.26-.54-.39-.81-.64-1.36a41.46,41.46,0,0,0,.06,23.9c2.67,9.44,7.84,19.15,14,29.14s12.51,19.49,17.57,28.52,7.87,16.25,9.28,21.63c-4.41,1.6-10.55,2.29-18.27,1.86a228.92,228.92,0,0,1-23.06-2.52c-7.65-1.23-14.55-2.7-20.69-4.27s-9.91-2.45-11.3-2.49c.57.13.86-3.67-1.38-11.35s-7.06-18.12-14.52-30.45c-8.52-14.09-18-29.46-21.16-43.6-4-18,1.17-33.16,9.82-51.88,7.89-17.1,20.67-36,23.38-53.8,2.39-15.7.11-32-6.07-48.14-4.68-12.25-9.84-24.8-14.38-37.28-3.76-10.3-5.51-17.43-6.62-21.24,17.25,1.52,34.51,2.88,51.7,3.69,19.76.92,39.73,2.46,59.56,3.93,17.56,1.29,31.41,3.64,47.28,9.88,14.9,5.85,30.36,15.39,41.6,26.63,10.78,10.77,21.72,23.67,24,40.21,2.69,19.9-10.74,34.84-22.65,48.84-9.94,11.22-22.76,21.77-34.79,30.17-10.76,7.51-26,14.52-39.31,16.32l-1.69.15-.43,0c-.07.17-.11.26-.19.43a58.32,58.32,0,0,0,11.81,29.28c8.08,10.42,19.35,19.92,29.8,27.69,12.39,9.21,25.13,18.7,37.48,27.85C1052.33,762.52,1064.23,773.29,1070.83,784.81ZM918.79,560A111.9,111.9,0,0,1,923,572.5a83.55,83.55,0,0,1,2.63,14.2,72.52,72.52,0,0,1,0,14c-.48,4.57-1.16,8.48-1.57,11.7l.43,0a183,183,0,0,0,20.86,3,78.19,78.19,0,0,0,22.08-1,25.62,25.62,0,0,0,14.64-8.89,25.17,25.17,0,0,0,6.21-14.85,28.12,28.12,0,0,0-4-15.53,32.29,32.29,0,0,0-11.95-11.94,45.89,45.89,0,0,0-26.44-7.62A91.59,91.59,0,0,0,918.79,560Z" transform="translate(-645.18 -97.76)" fill="#fbc27e"/><path d="M1227.24,454c2.12,9.29,5.67,20,10,32s7.88,23.15,9.27,33.33a70.06,70.06,0,0,0-20.31.09c-7.84,1-18.33,2.76-31.45,5.61l-.85.15-.43.07a.83.83,0,0,1,0,.67.83.83,0,0,0-.05.67c.1,1.46.46,3.68.94,6.66a119,119,0,0,1,1.67,14,67.66,67.66,0,0,1-3.74,25.18c-4.69,14-12.1,27.51-18.82,40.57-10.3,20-15.55,38.6-10.89,59,6.16,27,31.55,50.36,38.83,79.64,0,.17.05.25.08.42s0,.26.07.43a153.85,153.85,0,0,1-16.51,4.62q-9.07,2.05-18.19,4.15t-18,4.28a104.24,104.24,0,0,0-16.36,5.43c-.41-1.06-.71-6.23-3.81-15.23-4.9-14.21-13.07-27.54-20.71-40.37-13.66-22.93-18.27-44.63-10.13-68.88,11.82-35.19,34.49-60.89,25.79-101.87l-.53-.32a36.31,36.31,0,0,0-13.54.12q-7.8,1.35-15.49,3.1c-5.11,1.16-9.8,2.27-14,3.33s-8.09,1.86-9.14,1.34c-.76-.37-2.21-3.67-4.15-8.06s-4.23-9.73-6.75-16-5.16-13-7.47-20.36a84.71,84.71,0,0,1-4.12-21.31c0-.28-.12-.41-.26-.38s-.23-.09-.27-.37c29.71-7.63,59.64-16.29,89.08-23A345.81,345.81,0,0,1,1227.24,454Z" transform="translate(-645.18 -97.76)" fill="#fbc27e"/><path d="M1314.69,461.28c4,1,6,1.51,10,2.58.09.67.13,1,.23,1.69,5.73,24.74,17.4,49.71,21.67,72.62,5,26.88-5.7,48.58-19.16,74.39-14,26.76-22.65,48.47-12.5,74.67,8.71,22.46,31.15,46.8,37.22,73.14-1.85,1.66-6.4,1.76-13.46.49s-14.71-2.87-23-4.64-16.2-3.26-23.83-4.48-12.83-1.28-15.57-.57c-2.21-27.65-23.39-53-32.66-76.15-10.71-26.78-1.21-49.87,12.17-77.41,12.25-25.2,22-48.17,14-75.89-6.88-23.84-15.75-46.84-18.63-72.08,0-.33,0-.5-.09-.84,1.38-.19,4.13,0,8.26.84s7.22,1.31,9.13,1.6c5,.75,10.93,2.1,17.55,3.68S1302.23,458.46,1314.69,461.28Z" transform="translate(-645.18 -97.76)" fill="#fbc27e"/><path d="M1425.1,730.11c3.34,17.63,9.3,35.4,5.75,53.51a4.86,4.86,0,0,1-.91,1.73q-2.43-.36-5.51-1.13c-2-.51-5-1.36-8.68-2.55L1401.24,777c-6-1.89-13.6-4.19-23-6.75l-.42-.13c-1.11-.33-1.36-2.21-1.33-5.63s0-7.15-.35-11.18-.82-7.83-1.33-11.39a40.32,40.32,0,0,0-1.42-6.88c-1.6-5.57-3.34-11.1-4.76-16.62a55.27,55.27,0,0,1-2-16.24,44.61,44.61,0,0,1-.42-6.87,38.2,38.2,0,0,1,2.91-14.39c2.68-6.81,8.67-16.4,19.87-28.55,15.19-16.48,32.55-31.53,46.1-49.59a57.13,57.13,0,0,0,10.64-22.31,121.42,121.42,0,0,0,2.37-22.25,52.88,52.88,0,0,0,.25-6c0-3.53-.11-8-.29-13.48s-.62-11.68-.76-18.67a121.86,121.86,0,0,1,1.2-21.62,59.54,59.54,0,0,0,13.46,4.23c5,1,10,1.79,15,2.43s9.89,1.43,14.68,2.37a42.15,42.15,0,0,1,12.57,4.41,22.4,22.4,0,0,0-.69,3.47c-.11,1-.28,2.25-.47,3.88a156.15,156.15,0,0,0-.18,18.92c.63,13.19,1.6,26.33,1.88,39.62a85.5,85.5,0,0,1-4.73,22c-2.67,7.26-7,14.5-12.21,21.73-12.24,15-25.83,29.29-38,43.68-10.11,11.94-21.87,25.83-25.18,42.19a62.32,62.32,0,0,0-.6,11.46A101.06,101.06,0,0,0,1425.1,730.11Z" transform="translate(-645.18 -97.76)" fill="#fbc27e"/><path d="M1615.9,572.63a7,7,0,0,0-.77,3.06,19.86,19.86,0,0,1-.39,3c-.38,1,.63,6,.93,15.11s-1.36,20.11-6.71,32.72c-5.75,13.56-13.39,26.63-20,39.71-6.85,13.54-10.61,25.56-10.56,35.25,0,8,3.81,15.6,10.14,22.57s15.89,11.39,24.61,10.8c6.15-.42,12.16-3.53,16.62-7.47s6.81-9.21,7.63-15.63c.94-7.32.7-14.64.41-21.74s1.93-14.47,6-22.08a80.28,80.28,0,0,0,13.56-3.64c5.17-1.81,10.38-3.53,15.6-5.12s10.32-3,15.3-4.25a57.69,57.69,0,0,1,13-1.92c-.51,14,1.9,29.53,5.81,42.87s7.07,29.66,6,43.43c-1,12.94-9.4,28.75-18.27,37.76-11.35,11.53-26.19,18.16-41.16,24a117.5,117.5,0,0,1-32,7.8,79.42,79.42,0,0,1-31.48-3.43c-10.27-3.22-19.93-8.91-29.93-16.44a122.32,122.32,0,0,1-27.56-29.29c-6.48-10-12.75-20.63-16.25-31.62s-3.58-23.51,1.22-37.3c5.71-16.43,15-32.14,23-47.62,10.7-20.67,13-41,7.45-60.84-1.24-4.46-3.19-9.62-3.92-14.52a91.88,91.88,0,0,1-1-13.67c0-7.11.51-14.1,2.39-20.45a47.39,47.39,0,0,1,9.67-17.43,50.52,50.52,0,0,1,9.41-6.86q5.3-3,11.22-5.71a143.65,143.65,0,0,1,39.12-13.33c12.94-2.31,25.2-2.95,37.23-1.38a123.2,123.2,0,0,1,35.35,10.29,117.88,117.88,0,0,1,32.11,21.3c9.42,8.88,16.76,19.74,20.18,31.43,4.2,14.36-2.81,27.67-9.46,39.93a173,173,0,0,1-32.49,11.86,252.94,252.94,0,0,1-30.4,5.46,129.09,129.09,0,0,0,3-18,36.59,36.59,0,0,0-3.4-18.2,24.62,24.62,0,0,0-11.4-11.88c-5-2.57-12.37-2.88-20-.18-3.44,1.22-7.32,3.17-11.24,5S1617.56,569.9,1615.9,572.63Z" transform="translate(-645.18 -97.76)" fill="#fbc27e"/><path d="M1911.79,460.19c6.4,26.22,19.07,50.1,25.66,76.15,7.17,28.34-1.54,48.44-13.32,74-9.75,21.17-20.5,42.32-14.51,66.3,7.49,30,31.17,54.64,41.56,83.91-4.65-.43-9.72-1.18-15.18-2.2s-10.82-2.07-16-3.12-10.31-2-15.25-2.75a108.31,108.31,0,0,0-12.46-1.32l-.42-.05c-2.56-9.5-7.3-19.23-12.94-29.24s-12.2-19.92-17.79-29.75-10.49-19.69-12.81-29.6-1.87-19.49-.19-28.78c-.12-.19-.18-.28-.29-.47a87,87,0,0,0-23.93-3.37c-8.22,0-22,.68-25.7,4.19-4.45,4.18-4.93,19.94-2.59,29.51s7.17,19.11,12.77,28.62,11.55,18.82,16.26,28,10.17,23.06,8,27.46c-.91,1.89-7.55,3.83-13.28,4.66s-11.51,1.53-17.34,2.07-11.31,1.26-16.39,2.13-8.81,2.37-11.23,4.43c-1.61-7.77-5.88-18.56-14.11-31.81-9.3-15-19-29.69-26.31-45.39-8-17.32-4-37.4,4.34-54.51,9.26-19.12,21.13-38.28,25.42-58.73,3.87-18.43-2.28-38.23-8.77-55.81-5.74-15.56-12.17-31.76-14.47-48.42,0-.16,0-.25-.06-.42l.43-.11.87-.22a62.1,62.1,0,0,0,13.78-2.5q7.07-2.08,14.13-3.95t14-3a42.53,42.53,0,0,1,13.15-.22c6.15,19.14,15.88,37.29,22,56,6.32,19.18,9.09,33.6,8.34,54.2l.43,0a90.87,90.87,0,0,0,22.55.18c8.46-.82,16.32-1.14,23.58-1.18l.42,0c7.69-17.56,5.36-36.93-.72-54.53-6.41-18.55-14.61-36.48-19-55.69a58.33,58.33,0,0,1,12.07-1.63,106.86,106.86,0,0,1,15.24.44,114.39,114.39,0,0,1,15.84,2.67C1902.77,457.54,1907.53,458.87,1911.79,460.19Z" transform="translate(-645.18 -97.76)" fill="#fbc27e"/><path d="M2141.65,629.82a23.64,23.64,0,0,1,.58,9.54,48.55,48.55,0,0,1-2.37,9.78,161.59,161.59,0,0,1-7,15.37c-2.51,5.07-5.17,10.27-7.8,15.35-5.64,10.89-9.48,21.51-9.44,31.66s2.85,20.44,6.73,30.89c1.4,4,2.21,6,3.91,9.93a99.41,99.41,0,0,1,7.64,21.12c1.53,7,1.19,13.8-1.62,18.81-2.44,4.36-7.95,7.74-15,9.57a89.69,89.69,0,0,1-23.58,2.44,125.52,125.52,0,0,1-23.67-2.61,194.14,194.14,0,0,1-24.33-6.77c-5.9-2.08-11.68-4.43-17.24-6.83a129.41,129.41,0,0,1-16.06-8.35,133.74,133.74,0,0,1-14.63-10.38,126.58,126.58,0,0,1-13.08-12.85A223.61,223.61,0,0,1,1969,738c-4.44-6.1-8.8-12.13-12.38-18-10-16.47-19.43-31.83-20.25-48.13-.84-16.67,7.34-31,17.07-48.36,5.16-9.18,11.89-18.11,18.83-26.6a69.57,69.57,0,0,1,24.46-19.35,43,43,0,0,1,10-2.44,152.93,152.93,0,0,1,29.82,2.18,270,270,0,0,1,32.38,7.44c10.91,3.18,21.69,6.92,32.17,11.13s20.44,8.79,27.75,14.14C2136.4,615.54,2140.89,622.52,2141.65,629.82ZM2039.86,489.17c26.11,30.61,56.64,55.71,88,80.74-.38-.29-1.77-.33-4.17-.14s-5.71.33-9.9.34a117.68,117.68,0,0,1-14.85-1,102.6,102.6,0,0,1-19.12-4.56c-.85-.19-2.56-1.42-5.16-3.7s-5.38-4.86-8.37-7.76l-8.7-8.47a62.15,62.15,0,0,0-6.82-6,7.18,7.18,0,0,0-3.15,2.75c-1.19,1.57-2.46,3.24-3.85,5s-2.73,3.32-4,4.71-2.57,2.13-3.52,2a36.16,36.16,0,0,1-6-1.4c-1.55-.47-3.69-1.17-6.41-2.13s-6.6-2.34-11.63-4.15-12.28-4.46-21.77-7.93c5.23-9.92,11-18.3,19.38-25.35A333.61,333.61,0,0,1,2039.86,489.17Zm16.49,205.72a75,75,0,0,1,4.6-17c.07-.17.57-1.9,1.69-5.2s2.36-6.41,3.52-9.27a22.67,22.67,0,0,0,1.38-13.85,18.83,18.83,0,0,0-7.93-11.38,28.28,28.28,0,0,0-13.47-4.36,50.34,50.34,0,0,0-14.66.73c-10.21,2.21-19.07,6.35-24.83,12.49a63.51,63.51,0,0,0-12,18.92c-2.81,6.83-4.79,14.2-4.21,20.75.51,5.73,2.55,12.1,4.76,18.15a56.88,56.88,0,0,0,11,18.1c3.52,3.89,8.52,7.39,13.79,10.41a78.88,78.88,0,0,0,15.54,7,47.85,47.85,0,0,0,14,2.44c4.26,0,7.32-1,9.25-3a15.19,15.19,0,0,0,2-3.76,6.28,6.28,0,0,0-.19-3.65,51.64,51.64,0,0,0-2-5.18,34.46,34.46,0,0,1-2.15-8c-.52-3.11-.94-6-1.09-8.42s-.08-3.79-.09-4.12A45.82,45.82,0,0,1,2056.35,694.89Z" transform="translate(-645.18 -97.76)" fill="#fbc27e"/><path d="M798.16,984.59c-8.09,29.13-11.29,51.86,4.21,79s37.34,48.87,50.56,77.73c0,.17,0,.25.06.42a117.82,117.82,0,0,1-27.94-5.16,230.66,230.66,0,0,1-29.43-11l-.42-.11a189.68,189.68,0,0,0-9.59-17.29c-4.1-6.57-9-13.28-14.22-20.11s-10.61-13.4-15.68-19.7-9.57-11.8-13.49-16.48a84.45,84.45,0,0,0-8.91-2.83l-5.33-1.19c-1.57-.35-3.24-.65-5-.9s-4.24-.71-7.36-1.35q.09,6.15,3.36,14.82c2.18,5.78,4.74,11.84,7.19,18.19a100,100,0,0,1,5.46,18.42,26.2,26.2,0,0,1-1.43,15.45.7.7,0,0,0-.61.1.74.74,0,0,1-.62.11c-2.2.18-7.89-.78-17-2.52-14.08-2.68-28.28-3-42.58-3.36a1.49,1.49,0,0,1-.91-.43c.29-2,.57-7.49-1.66-16.47s-7.41-20.74-12.83-34.82c-7-18.08-10.86-31.83-7.59-49.23,3.94-20.89,23.72-41.49,37.16-60.09,15.21-21,25-39.82,24.77-64.85-.19-20.61-4.27-42.94-2.65-64.9a42.54,42.54,0,0,1,6.33.74q3.4.63,8.94,1.75l14.25,2.83c5.8,1.16,13.34,2.43,22.62,3.89a136.05,136.05,0,0,0,7.47,17.69c3.93,7.91,9,16.83,14.61,26.75s11.82,20.54,17,31.84,8.86,22.2,9.63,32.75-.88,20.32-2.83,29.19S799.6,979.39,798.16,984.59Zm-56.58,17.18c5.1-20.46,15.3-39.42,20.1-59.74,3.34-14.13,1.68-23.93,0-29.09s-3.49-6.57-4.86-4.23-2.27,7.48-5.2,15.48-8.33,18.37-16.35,30.59c-8.64,13.15-17.3,26.27-25.19,40q7.08,1.88,15.26,3.43T741.58,1001.77Z" transform="translate(-645.18 -97.76)" fill="#fbc27e"/><path d="M1070.83,1142.85l.42-.1c-9.89,2.33-20.85,5.15-32.9,8.14a182.74,182.74,0,0,1-37.35,5.36l-.43,0c-3.67-6.21-9.57-13.65-18.1-22.3-9.44-9.58-19.64-18.6-29.75-27.47-10.52-9.23-21.1-18.79-30.66-29a162.7,162.7,0,0,1-20.24-26.43c-.26-.54-.39-.81-.64-1.35a41.42,41.42,0,0,0,.06,23.89c2.67,9.45,7.84,19.15,14,29.14s12.51,19.49,17.57,28.52,7.87,16.25,9.28,21.63c-4.41,1.61-10.55,2.29-18.27,1.86a226,226,0,0,1-23.06-2.51c-7.65-1.23-14.55-2.7-20.69-4.28s-9.91-2.44-11.3-2.49c.57.13.86-3.66-1.38-11.35s-7.06-18.11-14.52-30.44c-8.52-14.09-18-29.47-21.16-43.61-4-18,1.17-33.16,9.82-51.87,7.89-17.1,20.67-36,23.38-53.81,2.39-15.69.11-31.94-6.07-48.14C854.14,894,849,881.45,844.44,869c-3.76-10.3-5.51-17.44-6.62-21.24,17.25,1.52,34.51,2.88,51.7,3.68,19.76.92,39.73,2.47,59.56,3.93,17.56,1.3,31.41,3.64,47.28,9.88,14.9,5.86,30.36,15.4,41.6,26.64,10.78,10.77,21.72,23.67,24,40.21,2.69,19.9-10.74,34.83-22.65,48.83-9.94,11.23-22.76,21.78-34.79,30.17-10.76,7.52-26,14.53-39.31,16.32l-1.69.16-.43,0c-.07.17-.11.26-.19.43a58.25,58.25,0,0,0,11.81,29.27c8.08,10.43,19.35,19.93,29.8,27.7,12.39,9.21,25.13,18.69,37.48,27.85C1052.33,1120.55,1064.23,1131.32,1070.83,1142.85ZM918.79,918A111.21,111.21,0,0,1,923,930.54a83.62,83.62,0,0,1,2.63,14.19,72.63,72.63,0,0,1,0,14.06c-.48,4.57-1.16,8.48-1.57,11.69l.43,0a185.26,185.26,0,0,0,20.86,3,77.81,77.81,0,0,0,22.08-1,25.66,25.66,0,0,0,14.64-8.88,25.22,25.22,0,0,0,6.21-14.85,28.15,28.15,0,0,0-4-15.54,32.34,32.34,0,0,0-11.95-11.93,46,46,0,0,0-26.44-7.63A91.92,91.92,0,0,0,918.79,918Z" transform="translate(-645.18 -97.76)" fill="#fbc27e"/><path d="M1227.24,812c2.12,9.29,5.67,20,10,32s7.88,23.16,9.27,33.34a70.38,70.38,0,0,0-20.31.08c-7.84,1-18.33,2.76-31.45,5.62l-.85.14-.43.08a.84.84,0,0,1,0,.67.83.83,0,0,0-.05.67c.1,1.46.46,3.67.94,6.65a119.32,119.32,0,0,1,1.67,14,67.68,67.68,0,0,1-3.74,25.19c-4.69,14-12.1,27.5-18.82,40.56-10.3,20-15.55,38.61-10.89,59,6.16,27,31.55,50.36,38.83,79.64,0,.17.05.25.08.42l.07.42a153.76,153.76,0,0,1-16.51,4.63q-9.07,2.05-18.19,4.15c-6.08,1.38-12.07,2.82-18,4.28a105.29,105.29,0,0,0-16.36,5.42c-.41-1-.71-6.22-3.81-15.23-4.9-14.2-13.07-27.53-20.71-40.36-13.66-22.94-18.27-44.64-10.13-68.88,11.82-35.19,34.49-60.9,25.79-101.88l-.53-.31a35.9,35.9,0,0,0-13.54.12q-7.8,1.34-15.49,3.09c-5.11,1.16-9.8,2.28-14,3.33s-8.09,1.87-9.14,1.35c-.76-.37-2.21-3.68-4.15-8.07s-4.23-9.72-6.75-16-5.16-13.06-7.47-20.36a84.78,84.78,0,0,1-4.12-21.32c0-.28-.12-.4-.26-.37s-.23-.09-.27-.37c29.71-7.64,59.64-16.29,89.08-23A346.25,346.25,0,0,1,1227.24,812Z" transform="translate(-645.18 -97.76)" fill="#fbc27e"/><path d="M1314.69,819.31c4,1,6,1.51,10,2.58.09.68.13,1,.23,1.7,5.73,24.73,17.4,49.71,21.67,72.61,5,26.89-5.7,48.59-19.16,74.4-14,26.76-22.65,48.46-12.5,74.67,8.71,22.45,31.15,46.8,37.22,73.13-1.85,1.67-6.4,1.77-13.46.5s-14.71-2.87-23-4.64-16.2-3.26-23.83-4.49-12.83-1.28-15.57-.56c-2.21-27.65-23.39-53-32.66-76.16-10.71-26.77-1.21-49.86,12.17-77.4,12.25-25.21,22-48.17,14-75.89-6.88-23.84-15.75-46.84-18.63-72.08,0-.34,0-.51-.09-.85,1.38-.19,4.13,0,8.26.84s7.22,1.32,9.13,1.61c5,.74,10.93,2.09,17.55,3.68S1302.23,816.49,1314.69,819.31Z" transform="translate(-645.18 -97.76)" fill="#fbc27e"/><path d="M1425.1,1088.14c3.34,17.64,9.3,35.4,5.75,53.52a5.07,5.07,0,0,1-.91,1.73q-2.43-.36-5.51-1.13c-2-.52-5-1.37-8.68-2.56s-8.57-2.74-14.51-4.62-13.6-4.19-23-6.75l-.42-.13c-1.11-.34-1.36-2.21-1.33-5.63s0-7.15-.35-11.19-.82-7.82-1.33-11.38a40.52,40.52,0,0,0-1.42-6.89c-1.6-5.56-3.34-11.1-4.76-16.62a55.2,55.2,0,0,1-2-16.23,44.66,44.66,0,0,1-.42-6.88,38.19,38.19,0,0,1,2.91-14.38c2.68-6.81,8.67-16.4,19.87-28.56,15.19-16.47,32.55-31.52,46.1-49.58a57.13,57.13,0,0,0,10.64-22.31,121.42,121.42,0,0,0,2.37-22.25,53.05,53.05,0,0,0,.25-6c0-3.53-.11-8-.29-13.48s-.62-11.68-.76-18.68a121.91,121.91,0,0,1,1.2-21.62,59.54,59.54,0,0,0,13.46,4.24c5,1,10,1.79,15,2.42s9.89,1.43,14.68,2.38a42.15,42.15,0,0,1,12.57,4.41,22.17,22.17,0,0,0-.69,3.47c-.11,1-.28,2.25-.47,3.88a156.15,156.15,0,0,0-.18,18.92c.63,13.19,1.6,26.32,1.88,39.61a85.58,85.58,0,0,1-4.73,22c-2.67,7.26-7,14.5-12.21,21.72-12.24,15-25.83,29.3-38,43.69-10.11,11.93-21.87,25.83-25.18,42.18a62.47,62.47,0,0,0-.6,11.47A101.11,101.11,0,0,0,1425.1,1088.14Z" transform="translate(-645.18 -97.76)" fill="#fbc27e"/><path d="M1615.9,930.67a7,7,0,0,0-.77,3.05,19.85,19.85,0,0,1-.39,3c-.38,1,.63,6,.93,15.11s-1.36,20.11-6.71,32.72c-5.75,13.55-13.39,26.63-20,39.71-6.85,13.54-10.61,25.56-10.56,35.25,0,8,3.81,15.6,10.14,22.57s15.89,11.39,24.61,10.8c6.15-.42,12.16-3.53,16.62-7.47s6.81-9.22,7.63-15.64c.94-7.31.7-14.64.41-21.74s1.93-14.46,6-22.07a79.47,79.47,0,0,0,13.56-3.65q7.76-2.71,15.6-5.11t15.3-4.25a57.77,57.77,0,0,1,13-1.93c-.51,14,1.9,29.54,5.81,42.88s7.07,29.65,6,43.43c-1,12.94-9.4,28.75-18.27,37.76-11.35,11.53-26.19,18.15-41.16,24a117.5,117.5,0,0,1-32,7.8,79.42,79.42,0,0,1-31.48-3.43c-10.27-3.23-19.93-8.92-29.93-16.45a122.09,122.09,0,0,1-27.56-29.28c-6.48-10-12.75-20.63-16.25-31.62s-3.58-23.51,1.22-37.31c5.71-16.42,15-32.13,23-47.61,10.7-20.67,13-41,7.45-60.84-1.24-4.47-3.19-9.63-3.92-14.53a91.75,91.75,0,0,1-1-13.66c0-7.11.51-14.1,2.39-20.45a47.39,47.39,0,0,1,9.67-17.43,50.52,50.52,0,0,1,9.41-6.86q5.3-3,11.22-5.72a144,144,0,0,1,39.12-13.32c12.94-2.31,25.2-3,37.23-1.38a123.5,123.5,0,0,1,35.35,10.28,117.91,117.91,0,0,1,32.11,21.31c9.42,8.88,16.76,19.73,20.18,31.43,4.2,14.35-2.81,27.66-9.46,39.93a172.92,172.92,0,0,1-32.49,11.85,249,249,0,0,1-30.4,5.46,128.84,128.84,0,0,0,3-18,36.62,36.62,0,0,0-3.4-18.2,24.66,24.66,0,0,0-11.4-11.88c-5-2.56-12.37-2.87-20-.17-3.44,1.21-7.32,3.17-11.24,5S1617.56,927.94,1615.9,930.67Z" transform="translate(-645.18 -97.76)" fill="#fbc27e"/><path d="M1911.79,818.22c6.4,26.23,19.07,50.11,25.66,76.15,7.17,28.35-1.54,48.44-13.32,74-9.75,21.18-20.5,42.32-14.51,66.31,7.49,30,31.17,54.64,41.56,83.91-4.65-.43-9.72-1.18-15.18-2.21s-10.82-2.06-16-3.11-10.31-2-15.25-2.75a106.41,106.41,0,0,0-12.46-1.33l-.42,0c-2.56-9.49-7.3-19.23-12.94-29.24s-12.2-19.91-17.79-29.75-10.49-19.68-12.81-29.59-1.87-19.5-.19-28.78c-.12-.19-.18-.28-.29-.47a86.57,86.57,0,0,0-23.93-3.37c-8.22,0-22,.67-25.7,4.19-4.45,4.18-4.93,19.94-2.59,29.51s7.17,19.11,12.77,28.62,11.55,18.82,16.26,28,10.17,23,8,27.45c-.91,1.9-7.55,3.84-13.28,4.67s-11.51,1.53-17.34,2.06-11.31,1.27-16.39,2.13-8.81,2.38-11.23,4.43c-1.61-7.76-5.88-18.56-14.11-31.8-9.3-15-19-29.69-26.31-45.39-8-17.32-4-37.4,4.34-54.51,9.26-19.13,21.13-38.29,25.42-58.73,3.87-18.43-2.28-38.23-8.77-55.82-5.74-15.55-12.17-31.75-14.47-48.41,0-.17,0-.25-.06-.42l.43-.11.87-.23a62.06,62.06,0,0,0,13.78-2.49q7.07-2.09,14.13-4t14-3a42.54,42.54,0,0,1,13.15-.23c6.15,19.14,15.88,37.3,22,56,6.32,19.19,9.09,33.61,8.34,54.21l.43,0a91.85,91.85,0,0,0,22.55.18c8.46-.83,16.32-1.15,23.58-1.18l.42,0c7.69-17.56,5.36-36.92-.72-54.52-6.41-18.56-14.61-36.49-19-55.7a59.73,59.73,0,0,1,12.07-1.63,109.88,109.88,0,0,1,15.24.44,112.94,112.94,0,0,1,15.84,2.68C1902.77,815.58,1907.53,816.9,1911.79,818.22Z" transform="translate(-645.18 -97.76)" fill="#fbc27e"/><path d="M2141.65,987.86a23.6,23.6,0,0,1,.58,9.53,48.8,48.8,0,0,1-2.37,9.79,161.59,161.59,0,0,1-7,15.37c-2.51,5.07-5.17,10.26-7.8,15.35-5.64,10.89-9.48,21.51-9.44,31.66s2.85,20.44,6.73,30.88c1.4,4,2.21,6,3.91,9.94a99.22,99.22,0,0,1,7.64,21.12c1.53,7,1.19,13.79-1.62,18.81-2.44,4.36-7.94,7.74-15,9.56a89.69,89.69,0,0,1-23.58,2.44,125.52,125.52,0,0,1-23.67-2.61,192.38,192.38,0,0,1-24.33-6.76c-5.9-2.08-11.68-4.44-17.24-6.83a129.48,129.48,0,0,1-16.06-8.36,131.09,131.09,0,0,1-14.63-10.38,125.46,125.46,0,0,1-13.08-12.84A225.26,225.26,0,0,1,1969,1096c-4.44-6.11-8.8-12.13-12.38-18-10-16.47-19.43-31.83-20.25-48.13-.84-16.67,7.34-31,17.07-48.36,5.16-9.18,11.89-18.12,18.83-26.6a69.45,69.45,0,0,1,24.46-19.35,43,43,0,0,1,10-2.45,152.93,152.93,0,0,1,29.82,2.18,270.05,270.05,0,0,1,32.38,7.45c10.91,3.17,21.69,6.91,32.17,11.13s20.44,8.79,27.75,14.14C2136.4,973.58,2140.89,980.55,2141.65,987.86ZM2039.86,847.2c26.11,30.62,56.64,55.72,88,80.75-.38-.3-1.77-.33-4.17-.14s-5.71.33-9.9.34a119.59,119.59,0,0,1-14.85-1,101.91,101.91,0,0,1-19.12-4.57c-.85-.18-2.56-1.41-5.16-3.69s-5.38-4.87-8.37-7.77-5.89-5.72-8.7-8.47a61.84,61.84,0,0,0-6.82-5.94,7.18,7.18,0,0,0-3.15,2.75c-1.19,1.57-2.46,3.23-3.85,5s-2.73,3.33-4,4.72-2.57,2.13-3.52,2a34.26,34.26,0,0,1-6-1.4q-2.32-.69-6.41-2.12t-11.63-4.15c-5-1.81-12.28-4.47-21.77-7.93,5.23-9.92,11-18.3,19.38-25.36A335.48,335.48,0,0,1,2039.86,847.2Zm16.49,205.72a75.14,75.14,0,0,1,4.6-17c.07-.16.57-1.89,1.69-5.2s2.36-6.4,3.52-9.26a22.67,22.67,0,0,0,1.38-13.85,18.88,18.88,0,0,0-7.93-11.39,28.28,28.28,0,0,0-13.47-4.35,50,50,0,0,0-14.66.73c-10.21,2.21-19.07,6.34-24.83,12.49a63.59,63.59,0,0,0-12,18.91c-2.81,6.84-4.79,14.21-4.21,20.75.51,5.74,2.55,12.11,4.76,18.16a56.84,56.84,0,0,0,11,18.09c3.52,3.9,8.52,7.39,13.79,10.42a78.88,78.88,0,0,0,15.54,7,47.85,47.85,0,0,0,14,2.44c4.26,0,7.32-1,9.25-3a15.22,15.22,0,0,0,2-3.77,6.25,6.25,0,0,0-.19-3.64,50.72,50.72,0,0,0-2-5.18,34.74,34.74,0,0,1-2.15-8c-.52-3.11-.94-6-1.09-8.42s-.08-3.79-.09-4.12A45.9,45.9,0,0,1,2056.35,1052.92Z" transform="translate(-645.18 -97.76)" fill="#fbc27e"/><path d="M798.16,1361c-8.09,29.13-11.29,51.85,4.21,79s37.34,48.87,50.56,77.73c0,.16,0,.25.06.42a118.39,118.39,0,0,1-27.94-5.17,229.13,229.13,0,0,1-29.43-11l-.42-.11a187,187,0,0,0-9.59-17.29c-4.1-6.57-9-13.28-14.22-20.11s-10.61-13.4-15.68-19.71-9.57-11.79-13.49-16.48a83.84,83.84,0,0,0-8.91-2.82l-5.33-1.2c-1.57-.34-3.24-.64-5-.9s-4.24-.71-7.36-1.34q.09,6.13,3.36,14.81c2.18,5.79,4.74,11.85,7.19,18.19a100.42,100.42,0,0,1,5.46,18.42,26.2,26.2,0,0,1-1.43,15.45.67.67,0,0,0-.61.11.71.71,0,0,1-.62.1c-2.2.19-7.89-.78-17-2.52-14.08-2.67-28.28-3-42.58-3.36a1.42,1.42,0,0,1-.91-.42c.29-2,.57-7.49-1.66-16.48s-7.41-20.74-12.83-34.82c-7-18.08-10.86-31.83-7.59-49.22,3.94-20.89,23.72-41.5,37.16-60.1,15.21-21,25-39.82,24.77-64.84-.19-20.62-4.27-42.94-2.65-64.91a42.54,42.54,0,0,1,6.33.74c2.27.43,5.25,1,8.94,1.75s8.45,1.68,14.25,2.83,13.34,2.43,22.62,3.89a135.47,135.47,0,0,0,7.47,17.69c3.93,7.91,9,16.83,14.61,26.76s11.82,20.53,17,31.83,8.86,22.21,9.63,32.76-.88,20.32-2.83,29.19S799.6,1355.74,798.16,1361Zm-56.58,17.17c5.1-20.45,15.3-39.42,20.1-59.74,3.34-14.12,1.68-23.93,0-29.09s-3.49-6.56-4.86-4.22-2.27,7.47-5.2,15.48-8.33,18.37-16.35,30.58c-8.64,13.16-17.3,26.28-25.19,40q7.08,1.88,15.26,3.44T741.58,1378.12Z" transform="translate(-645.18 -97.76)" fill="#fbc27e"/><path d="M1070.83,1519.2l.42-.1c-9.89,2.34-20.85,5.16-32.9,8.15a184.13,184.13,0,0,1-37.35,5.36l-.43,0c-3.67-6.21-9.57-13.64-18.1-22.3-9.44-9.58-19.64-18.59-29.75-27.46-10.52-9.23-21.1-18.8-30.66-29a163.13,163.13,0,0,1-20.24-26.43c-.26-.54-.39-.81-.64-1.36a41.46,41.46,0,0,0,.06,23.9c2.67,9.44,7.84,19.15,14,29.14s12.51,19.49,17.57,28.52,7.87,16.25,9.28,21.63c-4.41,1.6-10.55,2.29-18.27,1.86a226.05,226.05,0,0,1-23.06-2.52c-7.65-1.23-14.55-2.69-20.69-4.27s-9.91-2.45-11.3-2.49c.57.13.86-3.67-1.38-11.35s-7.06-18.11-14.52-30.45c-8.52-14.09-18-29.46-21.16-43.6-4-18,1.17-33.16,9.82-51.88,7.89-17.1,20.67-36,23.38-53.8,2.39-15.7.11-32-6.07-48.14-4.68-12.25-9.84-24.8-14.38-37.28-3.76-10.29-5.51-17.43-6.62-21.23,17.25,1.51,34.51,2.87,51.7,3.68,19.76.92,39.73,2.46,59.56,3.93,17.56,1.29,31.41,3.64,47.28,9.88,14.9,5.85,30.36,15.39,41.6,26.63,10.78,10.77,21.72,23.68,24,40.21,2.69,19.91-10.74,34.84-22.65,48.84-9.94,11.22-22.76,21.77-34.79,30.17-10.76,7.51-26,14.52-39.31,16.32l-1.69.15-.43,0c-.07.17-.11.26-.19.43a58.32,58.32,0,0,0,11.81,29.28c8.08,10.43,19.35,19.92,29.8,27.69,12.39,9.21,25.13,18.7,37.48,27.85C1052.33,1496.91,1064.23,1507.68,1070.83,1519.2Zm-152-224.82a112.59,112.59,0,0,1,4.22,12.51,83.73,83.73,0,0,1,2.63,14.2,72.52,72.52,0,0,1,0,14.05c-.48,4.58-1.16,8.48-1.57,11.7l.43.05a185.36,185.36,0,0,0,20.86,3,78.19,78.19,0,0,0,22.08-1,25.62,25.62,0,0,0,14.64-8.89,25.17,25.17,0,0,0,6.21-14.85,28.12,28.12,0,0,0-4-15.53,32.36,32.36,0,0,0-11.95-11.94,45.89,45.89,0,0,0-26.44-7.62A91.59,91.59,0,0,0,918.79,1294.38Z" transform="translate(-645.18 -97.76)" fill="#fbc27e"/><path d="M1227.24,1188.38c2.12,9.29,5.67,20,10,32s7.88,23.16,9.27,33.33a70.06,70.06,0,0,0-20.31.09c-7.84,1-18.33,2.76-31.45,5.61l-.85.15-.43.07a.83.83,0,0,1,0,.67.83.83,0,0,0-.05.67c.1,1.46.46,3.68.94,6.66a119,119,0,0,1,1.67,14,67.66,67.66,0,0,1-3.74,25.18c-4.69,14-12.1,27.51-18.82,40.57-10.3,20-15.55,38.6-10.89,59,6.16,27,31.55,50.36,38.83,79.64,0,.17.05.25.08.42s0,.26.07.43a153.85,153.85,0,0,1-16.51,4.62q-9.07,2.05-18.19,4.15t-18,4.28a104.24,104.24,0,0,0-16.36,5.43c-.41-1.06-.71-6.23-3.81-15.23-4.9-14.21-13.07-27.54-20.71-40.37-13.66-22.93-18.27-44.63-10.13-68.88,11.82-35.19,34.49-60.89,25.79-101.87l-.53-.32a36.31,36.31,0,0,0-13.54.12q-7.8,1.35-15.49,3.1c-5.11,1.16-9.8,2.27-14,3.33s-8.09,1.86-9.14,1.34c-.76-.37-2.21-3.67-4.15-8.06s-4.23-9.73-6.75-16-5.16-13-7.47-20.36a84.71,84.71,0,0,1-4.12-21.31c0-.28-.12-.41-.26-.38s-.23-.08-.27-.37c29.71-7.63,59.64-16.29,89.08-23A345.39,345.39,0,0,1,1227.24,1188.38Z" transform="translate(-645.18 -97.76)" fill="#fbc27e"/><path d="M1314.69,1195.67c4,1,6,1.51,10,2.58.09.67.13,1,.23,1.69,5.73,24.74,17.4,49.71,21.67,72.62,5,26.88-5.7,48.59-19.16,74.4-14,26.75-22.65,48.46-12.5,74.67,8.71,22.45,31.15,46.79,37.22,73.13-1.85,1.66-6.4,1.76-13.46.49s-14.71-2.87-23-4.64-16.2-3.26-23.83-4.48-12.83-1.28-15.57-.57c-2.21-27.65-23.39-53-32.66-76.15-10.71-26.78-1.21-49.87,12.17-77.41,12.25-25.2,22-48.17,14-75.89-6.88-23.84-15.75-46.84-18.63-72.07,0-.34,0-.51-.09-.85,1.38-.19,4.13,0,8.26.84s7.22,1.31,9.13,1.6c5,.75,10.93,2.1,17.55,3.68S1302.23,1192.85,1314.69,1195.67Z" transform="translate(-645.18 -97.76)" fill="#fbc27e"/><path d="M1425.1,1464.5c3.34,17.63,9.3,35.4,5.75,53.51a4.86,4.86,0,0,1-.91,1.73q-2.43-.36-5.51-1.13c-2-.51-5-1.36-8.68-2.55l-14.51-4.63c-6-1.89-13.6-4.19-23-6.75l-.42-.13c-1.11-.33-1.36-2.21-1.33-5.63s0-7.15-.35-11.18-.82-7.83-1.33-11.39a40.32,40.32,0,0,0-1.42-6.88c-1.6-5.56-3.34-11.1-4.76-16.62a55.27,55.27,0,0,1-2-16.24,44.61,44.61,0,0,1-.42-6.87,38.2,38.2,0,0,1,2.91-14.39c2.68-6.81,8.67-16.4,19.87-28.55,15.19-16.48,32.55-31.53,46.1-49.59a57.16,57.16,0,0,0,10.64-22.3,121.62,121.62,0,0,0,2.37-22.26,52.88,52.88,0,0,0,.25-6c0-3.53-.11-8-.29-13.48s-.62-11.68-.76-18.67a121.86,121.86,0,0,1,1.2-21.62,59.54,59.54,0,0,0,13.46,4.23c5,1,10,1.79,15,2.43s9.89,1.43,14.68,2.37a42.15,42.15,0,0,1,12.57,4.41,22.4,22.4,0,0,0-.69,3.47c-.11,1-.28,2.26-.47,3.89a155.93,155.93,0,0,0-.18,18.91c.63,13.19,1.6,26.33,1.88,39.62a85.66,85.66,0,0,1-4.73,22c-2.67,7.25-7,14.5-12.21,21.72-12.24,15-25.83,29.29-38,43.68-10.11,11.94-21.87,25.83-25.18,42.19a62.32,62.32,0,0,0-.6,11.46A101.06,101.06,0,0,0,1425.1,1464.5Z" transform="translate(-645.18 -97.76)" fill="#fbc27e"/><path d="M1615.9,1307a7,7,0,0,0-.77,3.06,19.86,19.86,0,0,1-.39,3c-.38,1,.63,6,.93,15.11s-1.36,20.11-6.71,32.72c-5.75,13.56-13.39,26.63-20,39.71-6.85,13.55-10.61,25.57-10.56,35.25,0,8,3.81,15.6,10.14,22.57s15.89,11.39,24.61,10.8c6.15-.41,12.16-3.53,16.62-7.47s6.81-9.21,7.63-15.63c.94-7.32.7-14.64.41-21.74s1.93-14.47,6-22.07a81.38,81.38,0,0,0,13.56-3.65c5.17-1.81,10.38-3.53,15.6-5.11s10.32-3,15.3-4.26a57.69,57.69,0,0,1,13-1.92c-.51,14,1.9,29.53,5.81,42.88s7.07,29.65,6,43.43c-1,12.93-9.4,28.74-18.27,37.76-11.35,11.52-26.19,18.15-41.16,23.94a117.88,117.88,0,0,1-32,7.81,79.79,79.79,0,0,1-31.48-3.43c-10.27-3.23-19.93-8.92-29.93-16.45a122.32,122.32,0,0,1-27.56-29.29c-6.48-10-12.75-20.62-16.25-31.62s-3.58-23.5,1.22-37.3c5.71-16.43,15-32.13,23-47.62,10.7-20.67,13-41,7.45-60.83-1.24-4.47-3.19-9.63-3.92-14.53a91.88,91.88,0,0,1-1-13.67c0-7.11.51-14.1,2.39-20.44a47.35,47.35,0,0,1,9.67-17.44,50.52,50.52,0,0,1,9.41-6.86q5.3-3,11.22-5.71a144,144,0,0,1,39.12-13.33c12.94-2.3,25.2-3,37.23-1.37a122.86,122.86,0,0,1,35.35,10.28,117.88,117.88,0,0,1,32.11,21.3c9.42,8.88,16.76,19.74,20.18,31.43,4.2,14.36-2.81,27.67-9.46,39.93a173,173,0,0,1-32.49,11.86,251,251,0,0,1-30.4,5.46,128.84,128.84,0,0,0,3-18,36.59,36.59,0,0,0-3.4-18.2,24.66,24.66,0,0,0-11.4-11.88c-5-2.57-12.37-2.87-20-.18-3.44,1.22-7.32,3.17-11.24,5S1617.56,1304.3,1615.9,1307Z" transform="translate(-645.18 -97.76)" fill="#fbc27e"/><path d="M1911.79,1194.58c6.4,26.23,19.07,50.1,25.66,76.15,7.17,28.34-1.54,48.44-13.32,74-9.75,21.17-20.5,42.32-14.51,66.31,7.49,30,31.17,54.63,41.56,83.91-4.65-.43-9.72-1.18-15.18-2.21s-10.82-2.07-16-3.11-10.31-2-15.25-2.76a108.31,108.31,0,0,0-12.46-1.32l-.42,0c-2.56-9.5-7.3-19.23-12.94-29.24s-12.2-19.92-17.79-29.75-10.49-19.69-12.81-29.6-1.87-19.49-.19-28.78c-.12-.19-.18-.28-.29-.47a87.33,87.33,0,0,0-23.93-3.37c-8.22,0-22,.68-25.7,4.19-4.45,4.18-4.93,19.94-2.59,29.51s7.17,19.11,12.77,28.62,11.55,18.83,16.26,27.95,10.17,23.06,8,27.46c-.91,1.89-7.55,3.83-13.28,4.67s-11.51,1.52-17.34,2.06-11.31,1.26-16.39,2.13-8.81,2.37-11.23,4.43c-1.61-7.77-5.88-18.56-14.11-31.81-9.3-15-19-29.69-26.31-45.39-8-17.31-4-37.4,4.34-54.51,9.26-19.12,21.13-38.28,25.42-58.73,3.87-18.43-2.28-38.23-8.77-55.81-5.74-15.56-12.17-31.75-14.47-48.41,0-.17,0-.26-.06-.43l.43-.11.87-.22a62.1,62.1,0,0,0,13.78-2.5q7.07-2.09,14.13-4t14-3a42.53,42.53,0,0,1,13.15-.22c6.15,19.14,15.88,37.29,22,56,6.32,19.18,9.09,33.6,8.34,54.2l.43,0a90.87,90.87,0,0,0,22.55.18c8.46-.82,16.32-1.14,23.58-1.18l.42,0c7.69-17.56,5.36-36.92-.72-54.53-6.41-18.55-14.61-36.48-19-55.69a58.33,58.33,0,0,1,12.07-1.63,106.86,106.86,0,0,1,15.24.44,112.94,112.94,0,0,1,15.84,2.68C1902.77,1191.93,1907.53,1193.26,1911.79,1194.58Z" transform="translate(-645.18 -97.76)" fill="#fbc27e"/><path d="M2141.65,1364.21a23.64,23.64,0,0,1,.58,9.54,48.55,48.55,0,0,1-2.37,9.78,159.36,159.36,0,0,1-7,15.37c-2.51,5.07-5.17,10.27-7.8,15.35-5.64,10.89-9.48,21.52-9.44,31.66s2.85,20.44,6.73,30.89c1.4,4,2.21,6,3.91,9.93a99.41,99.41,0,0,1,7.64,21.12c1.53,7.05,1.19,13.8-1.62,18.81-2.44,4.36-7.95,7.74-15,9.57a89.69,89.69,0,0,1-23.58,2.44,125.52,125.52,0,0,1-23.67-2.61,192.45,192.45,0,0,1-24.33-6.77c-5.9-2.08-11.68-4.43-17.24-6.83a129.41,129.41,0,0,1-16.06-8.35,132.4,132.4,0,0,1-14.63-10.38,126.58,126.58,0,0,1-13.08-12.85,225.18,225.18,0,0,1-15.76-18.52c-4.44-6.11-8.8-12.14-12.38-18-10-16.48-19.43-31.84-20.25-48.14-.84-16.67,7.34-31,17.07-48.36,5.16-9.18,11.89-18.11,18.83-26.6a69.57,69.57,0,0,1,24.46-19.35,43,43,0,0,1,10-2.44,152.93,152.93,0,0,1,29.82,2.18,270,270,0,0,1,32.38,7.44c10.91,3.18,21.69,6.92,32.17,11.13s20.44,8.79,27.75,14.14C2136.4,1349.93,2140.89,1356.91,2141.65,1364.21Zm-101.79-140.65c26.11,30.61,56.64,55.71,88,80.74-.38-.29-1.77-.33-4.17-.14s-5.71.33-9.9.34a117.68,117.68,0,0,1-14.85-1,101.82,101.82,0,0,1-19.12-4.56c-.85-.19-2.56-1.42-5.16-3.7s-5.38-4.86-8.37-7.76l-8.7-8.47a62.15,62.15,0,0,0-6.82-6,7.15,7.15,0,0,0-3.15,2.76c-1.19,1.56-2.46,3.23-3.85,5s-2.73,3.32-4,4.71-2.57,2.13-3.52,2a36.16,36.16,0,0,1-6-1.4c-1.55-.47-3.69-1.17-6.41-2.13s-6.6-2.33-11.63-4.15-12.28-4.46-21.77-7.93c5.23-9.92,11-18.3,19.38-25.35A333.61,333.61,0,0,1,2039.86,1223.56Zm16.49,205.72a75,75,0,0,1,4.6-17c.07-.16.57-1.9,1.69-5.2s2.36-6.41,3.52-9.27a22.66,22.66,0,0,0,1.38-13.85,18.83,18.83,0,0,0-7.93-11.38,28.28,28.28,0,0,0-13.47-4.36,50.69,50.69,0,0,0-14.66.73c-10.21,2.21-19.07,6.35-24.83,12.5a63.34,63.34,0,0,0-12,18.91c-2.81,6.83-4.79,14.2-4.21,20.75.51,5.73,2.55,12.1,4.76,18.15a56.88,56.88,0,0,0,11,18.1c3.52,3.89,8.52,7.39,13.79,10.41a78.88,78.88,0,0,0,15.54,7,47.85,47.85,0,0,0,14,2.44c4.26,0,7.32-1,9.25-3a15.19,15.19,0,0,0,2-3.76,6.28,6.28,0,0,0-.19-3.65,52.59,52.59,0,0,0-2-5.18,34.46,34.46,0,0,1-2.15-8c-.52-3.11-.94-6-1.09-8.42s-.08-3.79-.09-4.11A45.86,45.86,0,0,1,2056.35,1429.28Z" transform="translate(-645.18 -97.76)" fill="#fbc27e"/><path d="M798.16,1737.3c-8.09,29.13-11.29,51.85,4.21,79s37.34,48.87,50.56,77.73c0,.17,0,.25.06.42a117.82,117.82,0,0,1-27.94-5.16,230.66,230.66,0,0,1-29.43-11l-.42-.11a189.68,189.68,0,0,0-9.59-17.29c-4.1-6.57-9-13.28-14.22-20.11s-10.61-13.4-15.68-19.7-9.57-11.8-13.49-16.48a84.45,84.45,0,0,0-8.91-2.83l-5.33-1.19c-1.57-.35-3.24-.65-5-.9s-4.24-.71-7.36-1.35q.09,6.15,3.36,14.82c2.18,5.78,4.74,11.84,7.19,18.19a100,100,0,0,1,5.46,18.42,26.2,26.2,0,0,1-1.43,15.45.7.7,0,0,0-.61.1.74.74,0,0,1-.62.11c-2.2.18-7.89-.79-17-2.52-14.08-2.68-28.28-3-42.58-3.37a1.42,1.42,0,0,1-.91-.42c.29-2,.57-7.49-1.66-16.48s-7.41-20.73-12.83-34.81c-7-18.08-10.86-31.83-7.59-49.23,3.94-20.89,23.72-41.49,37.16-60.09,15.21-21,25-39.82,24.77-64.85-.19-20.61-4.27-42.94-2.65-64.9a42.54,42.54,0,0,1,6.33.74q3.4.63,8.94,1.74c3.69.75,8.45,1.68,14.25,2.84s13.34,2.43,22.62,3.89a136.05,136.05,0,0,0,7.47,17.69c3.93,7.91,9,16.82,14.61,26.75s11.82,20.54,17,31.84,8.86,22.2,9.63,32.75-.88,20.32-2.83,29.19S799.6,1732.1,798.16,1737.3Zm-56.58,17.18c5.1-20.46,15.3-39.42,20.1-59.74,3.34-14.13,1.68-23.93,0-29.09s-3.49-6.57-4.86-4.23-2.27,7.48-5.2,15.48-8.33,18.37-16.35,30.59c-8.64,13.15-17.3,26.27-25.19,40q7.08,1.86,15.26,3.43T741.58,1754.48Z" transform="translate(-645.18 -97.76)" fill="#fbc27e"/><path d="M1070.83,1895.56l.42-.1c-9.89,2.33-20.85,5.15-32.9,8.14A182.74,182.74,0,0,1,1001,1909l-.43,0c-3.67-6.2-9.57-13.64-18.1-22.29-9.44-9.58-19.64-18.6-29.75-27.47-10.52-9.23-21.1-18.8-30.66-29a162.7,162.7,0,0,1-20.24-26.43c-.26-.54-.39-.81-.64-1.35a41.42,41.42,0,0,0,.06,23.89c2.67,9.45,7.84,19.15,14,29.14s12.51,19.49,17.57,28.52,7.87,16.25,9.28,21.63c-4.41,1.61-10.55,2.29-18.27,1.86a223.26,223.26,0,0,1-23.06-2.52c-7.65-1.22-14.55-2.69-20.69-4.27s-9.91-2.44-11.3-2.49c.57.13.86-3.66-1.38-11.35s-7.06-18.11-14.52-30.44c-8.52-14.09-18-29.47-21.16-43.61-4-18,1.17-33.16,9.82-51.87,7.89-17.1,20.67-36,23.38-53.81,2.39-15.69.11-31.95-6.07-48.14-4.68-12.24-9.84-24.8-14.38-37.27-3.76-10.3-5.51-17.44-6.62-21.24,17.25,1.52,34.51,2.88,51.7,3.68,19.76.92,39.73,2.47,59.56,3.93,17.56,1.3,31.41,3.64,47.28,9.88,14.9,5.86,30.36,15.4,41.6,26.64,10.78,10.76,21.72,23.67,24,40.21,2.69,19.9-10.74,34.83-22.65,48.83-9.94,11.23-22.76,21.78-34.79,30.17-10.76,7.52-26,14.53-39.31,16.32l-1.69.16-.43,0c-.07.17-.11.26-.19.43A58.25,58.25,0,0,0,974.67,1810c8.08,10.43,19.35,19.93,29.8,27.7,12.39,9.21,25.13,18.69,37.48,27.85C1052.33,1873.26,1064.23,1884,1070.83,1895.56Zm-152-224.82a111.21,111.21,0,0,1,4.22,12.51,83.44,83.44,0,0,1,2.63,14.19,72.63,72.63,0,0,1,0,14.06c-.48,4.57-1.16,8.48-1.57,11.69l.43,0a185.26,185.26,0,0,0,20.86,3,78.18,78.18,0,0,0,22.08-1,25.66,25.66,0,0,0,14.64-8.88,25.22,25.22,0,0,0,6.21-14.85,28.15,28.15,0,0,0-4-15.54,32.34,32.34,0,0,0-11.95-11.93,46,46,0,0,0-26.44-7.63A91.59,91.59,0,0,0,918.79,1670.74Z" transform="translate(-645.18 -97.76)" fill="#fbc27e"/><path d="M1227.24,1564.73c2.12,9.29,5.67,20,10,32s7.88,23.16,9.27,33.34a70.38,70.38,0,0,0-20.31.08c-7.84,1-18.33,2.76-31.45,5.62l-.85.14-.43.08a.84.84,0,0,1,0,.67.83.83,0,0,0-.05.67c.1,1.46.46,3.67.94,6.65a119.32,119.32,0,0,1,1.67,14,67.68,67.68,0,0,1-3.74,25.19c-4.69,14-12.1,27.5-18.82,40.56-10.3,20-15.55,38.61-10.89,59,6.16,27,31.55,50.36,38.83,79.63l.08.43.07.42a153.76,153.76,0,0,1-16.51,4.63l-18.19,4.14q-9.12,2.09-18,4.29a104.24,104.24,0,0,0-16.36,5.42c-.41-1-.71-6.22-3.81-15.23-4.9-14.2-13.07-27.53-20.71-40.36-13.66-22.94-18.27-44.64-10.13-68.88,11.82-35.19,34.49-60.9,25.79-101.88l-.53-.31a35.9,35.9,0,0,0-13.54.12q-7.8,1.33-15.49,3.09c-5.11,1.16-9.8,2.28-14,3.33s-8.09,1.87-9.14,1.35c-.76-.37-2.21-3.68-4.15-8.07s-4.23-9.72-6.75-16-5.16-13.06-7.47-20.36a84.78,84.78,0,0,1-4.12-21.32c0-.28-.12-.4-.26-.37s-.23-.09-.27-.37c29.71-7.64,59.64-16.3,89.08-23A346.25,346.25,0,0,1,1227.24,1564.73Z" transform="translate(-645.18 -97.76)" fill="#fbc27e"/><path d="M1314.69,1572c4,1,6,1.51,10,2.58.09.68.13,1,.23,1.7,5.73,24.73,17.4,49.71,21.67,72.61,5,26.88-5.7,48.59-19.16,74.4-14,26.76-22.65,48.46-12.5,74.67,8.71,22.45,31.15,46.8,37.22,73.13-1.85,1.67-6.4,1.77-13.46.5s-14.71-2.87-23-4.64-16.2-3.26-23.83-4.49-12.83-1.28-15.57-.56c-2.21-27.65-23.39-53-32.66-76.16-10.71-26.77-1.21-49.87,12.17-77.4,12.25-25.21,22-48.17,14-75.89-6.88-23.84-15.75-46.84-18.63-72.08,0-.34,0-.51-.09-.85,1.38-.19,4.13,0,8.26.84s7.22,1.32,9.13,1.61c5,.74,10.93,2.09,17.55,3.68S1302.23,1569.2,1314.69,1572Z" transform="translate(-645.18 -97.76)" fill="#fbc27e"/><path d="M1425.1,1840.85c3.34,17.64,9.3,35.4,5.75,53.52a4.88,4.88,0,0,1-.91,1.72,55.65,55.65,0,0,1-5.51-1.12c-2-.52-5-1.37-8.68-2.56l-14.51-4.63c-6-1.89-13.6-4.18-23-6.75l-.42-.12c-1.11-.34-1.36-2.21-1.33-5.63s0-7.15-.35-11.19-.82-7.83-1.33-11.38a40.52,40.52,0,0,0-1.42-6.89c-1.6-5.56-3.34-11.1-4.76-16.62a55.2,55.2,0,0,1-2-16.23,44.66,44.66,0,0,1-.42-6.88,38.16,38.16,0,0,1,2.91-14.38c2.68-6.81,8.67-16.41,19.87-28.56,15.19-16.47,32.55-31.52,46.1-49.58a57.13,57.13,0,0,0,10.64-22.31,121.44,121.44,0,0,0,2.37-22.26,52.62,52.62,0,0,0,.25-6c0-3.53-.11-8-.29-13.49s-.62-11.67-.76-18.67a121.91,121.91,0,0,1,1.2-21.62,59.54,59.54,0,0,0,13.46,4.24q7.48,1.45,15,2.42t14.68,2.38a41.87,41.87,0,0,1,12.57,4.41,22.17,22.17,0,0,0-.69,3.47c-.11,1-.28,2.25-.47,3.88a156.15,156.15,0,0,0-.18,18.92c.63,13.18,1.6,26.32,1.88,39.61a85.58,85.58,0,0,1-4.73,22c-2.67,7.26-7,14.5-12.21,21.72-12.24,15-25.83,29.3-38,43.69-10.11,11.93-21.87,25.83-25.18,42.18a62.42,62.42,0,0,0-.6,11.47A101.11,101.11,0,0,0,1425.1,1840.85Z" transform="translate(-645.18 -97.76)" fill="#fbc27e"/><path d="M1615.9,1683.38a6.92,6.92,0,0,0-.77,3,19.85,19.85,0,0,1-.39,3c-.38,1,.63,6,.93,15.1s-1.36,20.12-6.71,32.73c-5.75,13.55-13.39,26.62-20,39.71-6.85,13.54-10.61,25.56-10.56,35.25,0,8,3.81,15.6,10.14,22.57s15.89,11.38,24.61,10.8c6.15-.42,12.16-3.53,16.62-7.47s6.81-9.22,7.63-15.64c.94-7.31.7-14.64.41-21.74s1.93-14.46,6-22.07a79.47,79.47,0,0,0,13.56-3.65q7.76-2.71,15.6-5.11t15.3-4.25a57.77,57.77,0,0,1,13-1.93c-.51,14,1.9,29.54,5.81,42.88s7.07,29.65,6,43.43c-1,12.94-9.4,28.75-18.27,37.76-11.35,11.53-26.19,18.15-41.16,24a118.23,118.23,0,0,1-32,7.8,79.42,79.42,0,0,1-31.48-3.43c-10.27-3.23-19.93-8.92-29.93-16.45a122.09,122.09,0,0,1-27.56-29.28c-6.48-10-12.75-20.63-16.25-31.62s-3.58-23.51,1.22-37.31c5.71-16.43,15-32.13,23-47.61,10.7-20.68,13-41,7.45-60.84-1.24-4.47-3.19-9.63-3.92-14.53a91.75,91.75,0,0,1-1-13.66c0-7.11.51-14.1,2.39-20.45a47.39,47.39,0,0,1,9.67-17.43,50.52,50.52,0,0,1,9.41-6.86q5.3-3,11.22-5.72A144,144,0,0,1,1614.8,1601c12.94-2.31,25.2-3,37.23-1.38a123.5,123.5,0,0,1,35.35,10.28,117.91,117.91,0,0,1,32.11,21.31c9.42,8.88,16.76,19.73,20.18,31.43,4.2,14.35-2.81,27.66-9.46,39.93a173.62,173.62,0,0,1-32.49,11.85,249,249,0,0,1-30.4,5.46,128.84,128.84,0,0,0,3-18,36.62,36.62,0,0,0-3.4-18.2,24.66,24.66,0,0,0-11.4-11.88c-5-2.56-12.37-2.87-20-.17-3.44,1.21-7.32,3.17-11.24,5S1617.56,1680.65,1615.9,1683.38Z" transform="translate(-645.18 -97.76)" fill="#fbc27e"/><path d="M1911.79,1570.93c6.4,26.23,19.07,50.1,25.66,76.15,7.17,28.35-1.54,48.44-13.32,74-9.75,21.18-20.5,42.32-14.51,66.31,7.49,30,31.17,54.64,41.56,83.91-4.65-.43-9.72-1.18-15.18-2.21s-10.82-2.06-16-3.11-10.31-2-15.25-2.75a106.41,106.41,0,0,0-12.46-1.33l-.42,0c-2.56-9.49-7.3-19.23-12.94-29.24s-12.2-19.91-17.79-29.75-10.49-19.69-12.81-29.59-1.87-19.5-.19-28.78c-.12-.19-.18-.28-.29-.47a86.57,86.57,0,0,0-23.93-3.37c-8.22,0-22,.67-25.7,4.19-4.45,4.18-4.93,19.93-2.59,29.51s7.17,19.11,12.77,28.61,11.55,18.83,16.26,28,10.17,23,8,27.45c-.91,1.9-7.55,3.84-13.28,4.67s-11.51,1.53-17.34,2.06-11.31,1.27-16.39,2.13-8.81,2.37-11.23,4.43c-1.61-7.76-5.88-18.56-14.11-31.8-9.3-15-19-29.69-26.31-45.39-8-17.32-4-37.4,4.34-54.52,9.26-19.12,21.13-38.28,25.42-58.72,3.87-18.43-2.28-38.23-8.77-55.82-5.74-15.55-12.17-31.75-14.47-48.41,0-.17,0-.25-.06-.42l.43-.11.87-.23a62.06,62.06,0,0,0,13.78-2.49q7.07-2.08,14.13-4t14-3a42.54,42.54,0,0,1,13.15-.23c6.15,19.14,15.88,37.3,22,56,6.32,19.19,9.09,33.61,8.34,54.21l.43,0a91.85,91.85,0,0,0,22.55.18c8.46-.83,16.32-1.15,23.58-1.18l.42,0c7.69-17.56,5.36-36.92-.72-54.52-6.41-18.56-14.61-36.49-19-55.7a59.73,59.73,0,0,1,12.07-1.63,109.88,109.88,0,0,1,15.24.44,112.94,112.94,0,0,1,15.84,2.68C1902.77,1568.29,1907.53,1569.61,1911.79,1570.93Z" transform="translate(-645.18 -97.76)" fill="#fbc27e"/><path d="M2141.65,1740.57a23.6,23.6,0,0,1,.58,9.53,48.8,48.8,0,0,1-2.37,9.79,161.59,161.59,0,0,1-7,15.37c-2.51,5.07-5.17,10.26-7.8,15.34-5.64,10.9-9.48,21.52-9.44,31.67s2.85,20.44,6.73,30.88c1.4,4,2.21,6,3.91,9.94a99.22,99.22,0,0,1,7.64,21.12c1.53,7,1.19,13.79-1.62,18.81-2.44,4.36-7.95,7.73-15,9.56a89.69,89.69,0,0,1-23.58,2.44,125.52,125.52,0,0,1-23.67-2.61,192.38,192.38,0,0,1-24.33-6.76c-5.9-2.08-11.68-4.44-17.24-6.83a129.48,129.48,0,0,1-16.06-8.36,131.09,131.09,0,0,1-14.63-10.38,125.46,125.46,0,0,1-13.08-12.84,225.26,225.26,0,0,1-15.76-18.53c-4.44-6.11-8.8-12.13-12.38-18-10-16.47-19.43-31.83-20.25-48.13-.84-16.67,7.34-31,17.07-48.36,5.16-9.18,11.89-18.12,18.83-26.61a69.54,69.54,0,0,1,24.46-19.34,43,43,0,0,1,10-2.45,152.93,152.93,0,0,1,29.82,2.18,270.05,270.05,0,0,1,32.38,7.45c10.91,3.17,21.69,6.91,32.17,11.13s20.44,8.79,27.75,14.14C2136.4,1726.29,2140.89,1733.26,2141.65,1740.57Zm-101.79-140.66c26.11,30.62,56.64,55.72,88,80.75-.38-.3-1.77-.33-4.17-.15s-5.71.34-9.9.35a119.59,119.59,0,0,1-14.85-1,101.91,101.91,0,0,1-19.12-4.57c-.85-.19-2.56-1.41-5.16-3.69s-5.38-4.87-8.37-7.77-5.89-5.72-8.7-8.47a61.84,61.84,0,0,0-6.82-5.94,7.18,7.18,0,0,0-3.15,2.75c-1.19,1.57-2.46,3.23-3.85,5s-2.73,3.33-4,4.72-2.57,2.13-3.52,2a34.26,34.26,0,0,1-6-1.4q-2.32-.69-6.41-2.12t-11.63-4.15c-5-1.81-12.28-4.47-21.77-7.93,5.23-9.92,11-18.3,19.38-25.36A333.61,333.61,0,0,1,2039.86,1599.91Zm16.49,205.72a75.14,75.14,0,0,1,4.6-17c.07-.16.57-1.89,1.69-5.2s2.36-6.4,3.52-9.26a22.67,22.67,0,0,0,1.38-13.85,18.85,18.85,0,0,0-7.93-11.39,28.28,28.28,0,0,0-13.47-4.35,50,50,0,0,0-14.66.73c-10.21,2.21-19.07,6.34-24.83,12.49a63.59,63.59,0,0,0-12,18.91c-2.81,6.84-4.79,14.2-4.21,20.75.51,5.74,2.55,12.11,4.76,18.16a56.84,56.84,0,0,0,11,18.09c3.52,3.9,8.52,7.39,13.79,10.42a78.88,78.88,0,0,0,15.54,6.95,47.85,47.85,0,0,0,14,2.44c4.26,0,7.32-1,9.25-3a15.22,15.22,0,0,0,2-3.77,6.25,6.25,0,0,0-.19-3.64,50.72,50.72,0,0,0-2-5.18,34.74,34.74,0,0,1-2.15-8c-.52-3.12-.94-6-1.09-8.42s-.08-3.79-.09-4.12A45.9,45.9,0,0,1,2056.35,1805.63Z" transform="translate(-645.18 -97.76)" fill="#fbc27e"/><path d="M798.16,2113.66c-8.09,29.13-11.29,51.85,4.21,79s37.34,48.86,50.56,77.72c0,.17,0,.26.06.43a118.39,118.39,0,0,1-27.94-5.17,229.13,229.13,0,0,1-29.43-11l-.42-.11a187,187,0,0,0-9.59-17.29c-4.1-6.57-9-13.28-14.22-20.12s-10.61-13.39-15.68-19.7-9.57-11.79-13.49-16.48a83.84,83.84,0,0,0-8.91-2.82l-5.33-1.2c-1.57-.34-3.24-.65-5-.9s-4.24-.71-7.36-1.34q.09,6.14,3.36,14.81c2.18,5.79,4.74,11.85,7.19,18.19a100.42,100.42,0,0,1,5.46,18.42,26.2,26.2,0,0,1-1.43,15.45.67.67,0,0,0-.61.11.71.71,0,0,1-.62.1c-2.2.19-7.89-.78-17-2.52-14.08-2.67-28.28-3-42.58-3.36a1.38,1.38,0,0,1-.91-.43c.29-2,.57-7.48-1.66-16.47s-7.41-20.74-12.83-34.82c-7-18.08-10.86-31.83-7.59-49.23,3.94-20.88,23.72-41.49,37.16-60.09,15.21-21,25-39.82,24.77-64.84-.19-20.62-4.27-42.94-2.65-64.91a42.54,42.54,0,0,1,6.33.74c2.27.43,5.25,1,8.94,1.75s8.45,1.68,14.25,2.83,13.34,2.43,22.62,3.89a135.47,135.47,0,0,0,7.47,17.69c3.93,7.91,9,16.83,14.61,26.76s11.82,20.53,17,31.83,8.86,22.21,9.63,32.76-.88,20.32-2.83,29.19S799.6,2108.45,798.16,2113.66Zm-56.58,17.17c5.1-20.45,15.3-39.42,20.1-59.74,3.34-14.12,1.68-23.93,0-29.09s-3.49-6.56-4.86-4.22-2.27,7.47-5.2,15.48-8.33,18.36-16.35,30.58c-8.64,13.15-17.3,26.28-25.19,40q7.08,1.88,15.26,3.44T741.58,2130.83Z" transform="translate(-645.18 -97.76)" fill="#fbc27e"/><path d="M1070.83,2271.91l.42-.1c-9.89,2.34-20.85,5.16-32.9,8.15a184.13,184.13,0,0,1-37.35,5.36l-.43,0c-3.67-6.21-9.57-13.64-18.1-22.3-9.44-9.58-19.64-18.59-29.75-27.46-10.52-9.23-21.1-18.8-30.66-29a163.13,163.13,0,0,1-20.24-26.43c-.26-.54-.39-.81-.64-1.36a41.46,41.46,0,0,0,.06,23.9c2.67,9.44,7.84,19.15,14,29.14s12.51,19.49,17.57,28.52,7.87,16.25,9.28,21.63c-4.41,1.6-10.55,2.29-18.27,1.86a226.05,226.05,0,0,1-23.06-2.52c-7.65-1.23-14.55-2.69-20.69-4.27s-9.91-2.45-11.3-2.49c.57.13.86-3.67-1.38-11.35s-7.06-18.12-14.52-30.45c-8.52-14.09-18-29.46-21.16-43.6-4-18,1.17-33.16,9.82-51.88,7.89-17.1,20.67-36,23.38-53.8,2.39-15.7.11-31.95-6.07-48.14-4.68-12.25-9.84-24.8-14.38-37.28-3.76-10.3-5.51-17.43-6.62-21.24,17.25,1.52,34.51,2.88,51.7,3.69,19.76.92,39.73,2.46,59.56,3.93,17.56,1.29,31.41,3.64,47.28,9.88,14.9,5.85,30.36,15.39,41.6,26.63,10.78,10.77,21.72,23.67,24,40.21,2.69,19.91-10.74,34.84-22.65,48.84-9.94,11.22-22.76,21.77-34.79,30.17-10.76,7.51-26,14.52-39.31,16.32l-1.69.15-.43,0c-.07.17-.11.26-.19.43a58.32,58.32,0,0,0,11.81,29.28c8.08,10.42,19.35,19.92,29.8,27.69,12.39,9.21,25.13,18.7,37.48,27.85C1052.33,2249.62,1064.23,2260.39,1070.83,2271.91Zm-152-224.82A111.9,111.9,0,0,1,923,2059.6a83.73,83.73,0,0,1,2.63,14.2,72.52,72.52,0,0,1,0,14c-.48,4.58-1.16,8.48-1.57,11.7l.43,0a185.36,185.36,0,0,0,20.86,3,78.19,78.19,0,0,0,22.08-1,25.62,25.62,0,0,0,14.64-8.89,25.17,25.17,0,0,0,6.21-14.85,28.12,28.12,0,0,0-4-15.53,32.36,32.36,0,0,0-11.95-11.94,45.89,45.89,0,0,0-26.44-7.62A91.59,91.59,0,0,0,918.79,2047.09Z" transform="translate(-645.18 -97.76)" fill="#fbc27e"/><path d="M1227.24,1941.09c2.12,9.29,5.67,20,10,32s7.88,23.16,9.27,33.33a70.06,70.06,0,0,0-20.31.09c-7.84,1-18.33,2.76-31.45,5.61l-.85.15-.43.07a.83.83,0,0,1,0,.67.83.83,0,0,0-.05.67c.1,1.46.46,3.68.94,6.66a119,119,0,0,1,1.67,14,67.66,67.66,0,0,1-3.74,25.18c-4.69,14-12.1,27.51-18.82,40.57-10.3,20-15.55,38.6-10.89,59,6.16,27,31.55,50.36,38.83,79.64,0,.17.05.25.08.42s0,.26.07.43a153.85,153.85,0,0,1-16.51,4.62q-9.07,2.05-18.19,4.15t-18,4.28a104.24,104.24,0,0,0-16.36,5.43c-.41-1.06-.71-6.23-3.81-15.23-4.9-14.21-13.07-27.54-20.71-40.37-13.66-22.93-18.27-44.63-10.13-68.88,11.82-35.19,34.49-60.89,25.79-101.87l-.53-.32a36.31,36.31,0,0,0-13.54.12q-7.8,1.35-15.49,3.1c-5.11,1.16-9.8,2.27-14,3.33s-8.09,1.86-9.14,1.34c-.76-.37-2.21-3.67-4.15-8.06s-4.23-9.73-6.75-16-5.16-13-7.47-20.36a84.71,84.71,0,0,1-4.12-21.31c0-.28-.12-.41-.26-.38s-.23-.09-.27-.37c29.71-7.63,59.64-16.29,89.08-23A345.81,345.81,0,0,1,1227.24,1941.09Z" transform="translate(-645.18 -97.76)" fill="#fbc27e"/><path d="M1314.69,1948.38c4,1,6,1.51,10,2.58.09.67.13,1,.23,1.69,5.73,24.74,17.4,49.71,21.67,72.62,5,26.88-5.7,48.58-19.16,74.4-14,26.75-22.65,48.46-12.5,74.66,8.71,22.46,31.15,46.8,37.22,73.14-1.85,1.66-6.4,1.76-13.46.49s-14.71-2.87-23-4.64-16.2-3.26-23.83-4.48-12.83-1.28-15.57-.57c-2.21-27.65-23.39-53-32.66-76.15-10.71-26.78-1.21-49.87,12.17-77.41,12.25-25.2,22-48.17,14-75.89-6.88-23.84-15.75-46.84-18.63-72.07,0-.34,0-.51-.09-.85,1.38-.19,4.13,0,8.26.84s7.22,1.31,9.13,1.6c5,.75,10.93,2.1,17.55,3.68S1302.23,1945.56,1314.69,1948.38Z" transform="translate(-645.18 -97.76)" fill="#fbc27e"/><path d="M1425.1,2217.21c3.34,17.63,9.3,35.4,5.75,53.51a4.86,4.86,0,0,1-.91,1.73q-2.43-.36-5.51-1.13c-2-.51-5-1.36-8.68-2.55l-14.51-4.63c-6-1.89-13.6-4.19-23-6.75l-.42-.13c-1.11-.33-1.36-2.21-1.33-5.63s0-7.15-.35-11.18-.82-7.83-1.33-11.39a40.32,40.32,0,0,0-1.42-6.88c-1.6-5.56-3.34-11.1-4.76-16.62a55.27,55.27,0,0,1-2-16.24,44.61,44.61,0,0,1-.42-6.87,38.2,38.2,0,0,1,2.91-14.39c2.68-6.81,8.67-16.4,19.87-28.55,15.19-16.48,32.55-31.53,46.1-49.59a57.13,57.13,0,0,0,10.64-22.31,121.42,121.42,0,0,0,2.37-22.25,52.88,52.88,0,0,0,.25-6c0-3.53-.11-8-.29-13.48s-.62-11.68-.76-18.67a121.86,121.86,0,0,1,1.2-21.62,59.54,59.54,0,0,0,13.46,4.23c5,1,10,1.79,15,2.43s9.89,1.43,14.68,2.37a42.15,42.15,0,0,1,12.57,4.41,22.4,22.4,0,0,0-.69,3.47c-.11,1-.28,2.25-.47,3.88a156.15,156.15,0,0,0-.18,18.92c.63,13.19,1.6,26.33,1.88,39.62a85.5,85.5,0,0,1-4.73,22c-2.67,7.26-7,14.51-12.21,21.73-12.24,15-25.83,29.29-38,43.68-10.11,11.94-21.87,25.83-25.18,42.19a62.32,62.32,0,0,0-.6,11.46A101.06,101.06,0,0,0,1425.1,2217.21Z" transform="translate(-645.18 -97.76)" fill="#fbc27e"/><path d="M1615.9,2059.73a7,7,0,0,0-.77,3.06,19.86,19.86,0,0,1-.39,3c-.38,1,.63,6,.93,15.11s-1.36,20.11-6.71,32.72c-5.75,13.56-13.39,26.63-20,39.71-6.85,13.55-10.61,25.57-10.56,35.25,0,8,3.81,15.6,10.14,22.57s15.89,11.39,24.61,10.8c6.15-.41,12.16-3.53,16.62-7.47s6.81-9.21,7.63-15.63c.94-7.32.7-14.64.41-21.74s1.93-14.47,6-22.08a80.28,80.28,0,0,0,13.56-3.64c5.17-1.81,10.38-3.53,15.6-5.11s10.32-3,15.3-4.26a57.69,57.69,0,0,1,13-1.92c-.51,14,1.9,29.53,5.81,42.88s7.07,29.65,6,43.43c-1,12.93-9.4,28.74-18.27,37.75-11.35,11.53-26.19,18.16-41.16,24a117.5,117.5,0,0,1-32,7.8,79.42,79.42,0,0,1-31.48-3.43c-10.27-3.22-19.93-8.91-29.93-16.44a122.32,122.32,0,0,1-27.56-29.29c-6.48-10-12.75-20.62-16.25-31.62s-3.58-23.51,1.22-37.3c5.71-16.43,15-32.13,23-47.62,10.7-20.67,13-41,7.45-60.83-1.24-4.47-3.19-9.63-3.92-14.53a91.88,91.88,0,0,1-1-13.67c0-7.11.51-14.1,2.39-20.45a47.39,47.39,0,0,1,9.67-17.43,50.52,50.52,0,0,1,9.41-6.86q5.3-3,11.22-5.71a143.65,143.65,0,0,1,39.12-13.33c12.94-2.31,25.2-2.95,37.23-1.38a123.2,123.2,0,0,1,35.35,10.29,117.88,117.88,0,0,1,32.11,21.3c9.42,8.88,16.76,19.74,20.18,31.43,4.2,14.36-2.81,27.67-9.46,39.93a173,173,0,0,1-32.49,11.86,252.94,252.94,0,0,1-30.4,5.46,128.84,128.84,0,0,0,3-18,36.59,36.59,0,0,0-3.4-18.2,24.66,24.66,0,0,0-11.4-11.88c-5-2.57-12.37-2.88-20-.18-3.44,1.22-7.32,3.17-11.24,5S1617.56,2057,1615.9,2059.73Z" transform="translate(-645.18 -97.76)" fill="#fbc27e"/><path d="M1911.79,1947.29c6.4,26.22,19.07,50.1,25.66,76.15,7.17,28.34-1.54,48.44-13.32,74-9.75,21.17-20.5,42.32-14.51,66.31,7.49,30,31.17,54.63,41.56,83.91-4.65-.44-9.72-1.19-15.18-2.21s-10.82-2.07-16-3.12-10.31-2-15.25-2.75a108.31,108.31,0,0,0-12.46-1.32l-.42-.05c-2.56-9.5-7.3-19.23-12.94-29.24s-12.2-19.92-17.79-29.75-10.49-19.69-12.81-29.6-1.87-19.49-.19-28.78c-.12-.19-.18-.28-.29-.47a87.33,87.33,0,0,0-23.93-3.37c-8.22,0-22,.68-25.7,4.19-4.45,4.18-4.93,19.94-2.59,29.51s7.17,19.11,12.77,28.62,11.55,18.82,16.26,28,10.17,23.06,8,27.46c-.91,1.89-7.55,3.83-13.28,4.66s-11.51,1.53-17.34,2.07-11.31,1.26-16.39,2.13-8.81,2.37-11.23,4.43c-1.61-7.77-5.88-18.56-14.11-31.81-9.3-15-19-29.69-26.31-45.39-8-17.32-4-37.4,4.34-54.51,9.26-19.12,21.13-38.28,25.42-58.73,3.87-18.43-2.28-38.23-8.77-55.81-5.74-15.56-12.17-31.76-14.47-48.41,0-.17,0-.26-.06-.43l.43-.11.87-.22a62.1,62.1,0,0,0,13.78-2.5q7.07-2.09,14.13-4t14-3a42.53,42.53,0,0,1,13.15-.22c6.15,19.14,15.88,37.29,22,56,6.32,19.18,9.09,33.6,8.34,54.2l.43,0a90.87,90.87,0,0,0,22.55.18c8.46-.82,16.32-1.14,23.58-1.18l.42,0c7.69-17.56,5.36-36.93-.72-54.53-6.41-18.55-14.61-36.48-19-55.69a58.33,58.33,0,0,1,12.07-1.63,106.86,106.86,0,0,1,15.24.44,114.39,114.39,0,0,1,15.84,2.67C1902.77,1944.64,1907.53,1946,1911.79,1947.29Z" transform="translate(-645.18 -97.76)" fill="#fbc27e"/><path d="M2141.65,2116.92a23.64,23.64,0,0,1,.58,9.54,48.55,48.55,0,0,1-2.37,9.78,160.47,160.47,0,0,1-7,15.37c-2.51,5.07-5.17,10.27-7.8,15.35-5.64,10.89-9.48,21.52-9.44,31.66s2.85,20.44,6.73,30.89c1.4,4,2.21,6,3.91,9.93a99.41,99.41,0,0,1,7.64,21.12c1.53,7,1.19,13.8-1.62,18.81-2.44,4.36-7.94,7.74-15,9.57a89.69,89.69,0,0,1-23.58,2.44,125.52,125.52,0,0,1-23.67-2.61,194.14,194.14,0,0,1-24.33-6.77c-5.9-2.08-11.68-4.43-17.24-6.83a129.41,129.41,0,0,1-16.06-8.35,132.4,132.4,0,0,1-14.63-10.38,126.58,126.58,0,0,1-13.08-12.85,223.61,223.61,0,0,1-15.76-18.53c-4.44-6.1-8.8-12.13-12.38-18-10-16.47-19.43-31.83-20.25-48.13-.84-16.67,7.34-31,17.07-48.36,5.16-9.18,11.89-18.11,18.83-26.6a69.57,69.57,0,0,1,24.46-19.35,43,43,0,0,1,10-2.44,152.93,152.93,0,0,1,29.82,2.18,270,270,0,0,1,32.38,7.44c10.91,3.18,21.69,6.92,32.17,11.13s20.44,8.79,27.75,14.14C2136.4,2102.64,2140.89,2109.62,2141.65,2116.92Zm-101.79-140.65c26.11,30.61,56.64,55.71,88,80.74-.38-.29-1.77-.33-4.17-.14s-5.71.33-9.9.34a117.68,117.68,0,0,1-14.85-1,102.6,102.6,0,0,1-19.12-4.56c-.85-.19-2.56-1.42-5.16-3.7s-5.38-4.86-8.37-7.76l-8.7-8.47a62.15,62.15,0,0,0-6.82-6,7.15,7.15,0,0,0-3.15,2.76c-1.19,1.56-2.46,3.23-3.85,5s-2.73,3.32-4,4.71-2.57,2.13-3.52,2a36.16,36.16,0,0,1-6-1.4c-1.55-.47-3.69-1.17-6.41-2.13s-6.6-2.34-11.63-4.15-12.28-4.46-21.77-7.93c5.23-9.92,11-18.3,19.38-25.35A333.61,333.61,0,0,1,2039.86,1976.27ZM2056.35,2182a75,75,0,0,1,4.6-17c.07-.17.57-1.9,1.69-5.2s2.36-6.41,3.52-9.27a22.67,22.67,0,0,0,1.38-13.85,18.83,18.83,0,0,0-7.93-11.38,28.28,28.28,0,0,0-13.47-4.36,50.69,50.69,0,0,0-14.66.73c-10.21,2.21-19.07,6.35-24.83,12.49a63.51,63.51,0,0,0-12,18.92c-2.81,6.83-4.79,14.2-4.21,20.75.51,5.73,2.55,12.1,4.76,18.15a56.88,56.88,0,0,0,11,18.1c3.52,3.89,8.52,7.39,13.79,10.41a78.88,78.88,0,0,0,15.54,6.95,47.85,47.85,0,0,0,14,2.44c4.26,0,7.32-1,9.25-3a15.19,15.19,0,0,0,2-3.76,6.28,6.28,0,0,0-.19-3.65,52.59,52.59,0,0,0-2-5.18,34.46,34.46,0,0,1-2.15-8c-.52-3.11-.94-6-1.09-8.42s-.08-3.79-.09-4.12A45.82,45.82,0,0,1,2056.35,2182Z" transform="translate(-645.18 -97.76)" fill="#fbc27e"/><path d="M798.16,2474c-8.09,29.13-11.29,51.85,4.21,79s37.34,48.86,50.56,77.72c0,.17,0,.26.06.43a118.39,118.39,0,0,1-27.94-5.17,229.13,229.13,0,0,1-29.43-11l-.42-.11a187,187,0,0,0-9.59-17.29c-4.1-6.58-9-13.28-14.22-20.12s-10.61-13.4-15.68-19.7-9.57-11.8-13.49-16.48a83.84,83.84,0,0,0-8.91-2.82c-2-.46-3.77-.85-5.33-1.2s-3.24-.65-5-.9-4.24-.71-7.36-1.34q.09,6.14,3.36,14.81c2.18,5.78,4.74,11.85,7.19,18.19a100.42,100.42,0,0,1,5.46,18.42,26.2,26.2,0,0,1-1.43,15.45.67.67,0,0,0-.61.11.71.71,0,0,1-.62.1c-2.2.19-7.89-.78-17-2.52-14.08-2.67-28.28-3-42.58-3.36a1.38,1.38,0,0,1-.91-.43c.29-2,.57-7.48-1.66-16.47s-7.41-20.74-12.83-34.82c-7-18.08-10.86-31.83-7.59-49.23,3.94-20.88,23.72-41.49,37.16-60.09,15.21-21,25-39.82,24.77-64.85-.19-20.61-4.27-42.94-2.65-64.9a42.54,42.54,0,0,1,6.33.74c2.27.43,5.25,1,8.94,1.75s8.45,1.68,14.25,2.83,13.34,2.43,22.62,3.89a135.47,135.47,0,0,0,7.47,17.69c3.93,7.91,9,16.83,14.61,26.76s11.82,20.53,17,31.83,8.86,22.21,9.63,32.76-.88,20.32-2.83,29.19S799.6,2468.82,798.16,2474Zm-56.58,17.17c5.1-20.46,15.3-39.42,20.1-59.74,3.34-14.12,1.68-23.93,0-29.09s-3.49-6.56-4.86-4.22-2.27,7.47-5.2,15.48-8.33,18.36-16.35,30.58c-8.64,13.15-17.3,26.28-25.19,40q7.08,1.88,15.26,3.44T741.58,2491.2Z" transform="translate(-645.18 -97.76)" fill="#fbc27e"/><path d="M1070.83,2632.28l.42-.1c-9.89,2.34-20.85,5.16-32.9,8.15a183.43,183.43,0,0,1-37.35,5.35l-.43.05c-3.67-6.21-9.57-13.64-18.1-22.3-9.44-9.58-19.64-18.59-29.75-27.46-10.52-9.23-21.1-18.8-30.66-29a163.57,163.57,0,0,1-20.24-26.43c-.26-.54-.39-.81-.64-1.36a41.46,41.46,0,0,0,.06,23.9c2.67,9.44,7.84,19.15,14,29.14s12.51,19.49,17.57,28.52,7.87,16.25,9.28,21.63c-4.41,1.6-10.55,2.29-18.27,1.86a228.92,228.92,0,0,1-23.06-2.52c-7.65-1.23-14.55-2.7-20.69-4.27s-9.91-2.45-11.3-2.49c.57.13.86-3.67-1.38-11.35s-7.06-18.12-14.52-30.45c-8.52-14.09-18-29.46-21.16-43.6-4-18,1.17-33.16,9.82-51.88,7.89-17.1,20.67-36,23.38-53.8,2.39-15.7.11-31.95-6.07-48.14-4.68-12.25-9.84-24.8-14.38-37.28-3.76-10.3-5.51-17.43-6.62-21.24,17.25,1.52,34.51,2.88,51.7,3.69,19.76.92,39.73,2.46,59.56,3.93,17.56,1.29,31.41,3.64,47.28,9.88,14.9,5.85,30.36,15.39,41.6,26.63,10.78,10.77,21.72,23.67,24,40.21,2.69,19.9-10.74,34.84-22.65,48.84-9.94,11.22-22.76,21.77-34.79,30.17-10.76,7.51-26,14.52-39.31,16.32l-1.69.15-.43,0c-.07.17-.11.26-.19.43a58.32,58.32,0,0,0,11.81,29.28c8.08,10.42,19.35,19.92,29.8,27.69,12.39,9.21,25.13,18.7,37.48,27.85C1052.33,2610,1064.23,2620.76,1070.83,2632.28Zm-152-224.82A111.9,111.9,0,0,1,923,2420a83.55,83.55,0,0,1,2.63,14.2,72.52,72.52,0,0,1,0,14c-.48,4.57-1.16,8.48-1.57,11.7l.43,0a183,183,0,0,0,20.86,3,78.19,78.19,0,0,0,22.08-1,25.62,25.62,0,0,0,14.64-8.89,25.17,25.17,0,0,0,6.21-14.85,28.12,28.12,0,0,0-4-15.53,32.29,32.29,0,0,0-11.95-11.94,45.89,45.89,0,0,0-26.44-7.62A91.59,91.59,0,0,0,918.79,2407.46Z" transform="translate(-645.18 -97.76)" fill="#fbc27e"/><path d="M1227.24,2301.46c2.12,9.29,5.67,20,10,32s7.88,23.15,9.27,33.33a70.06,70.06,0,0,0-20.31.09c-7.84,1-18.33,2.76-31.45,5.61l-.85.15-.43.07a.83.83,0,0,1,0,.67.83.83,0,0,0-.05.67c.1,1.46.46,3.68.94,6.66a119,119,0,0,1,1.67,14,67.66,67.66,0,0,1-3.74,25.18c-4.69,14-12.1,27.51-18.82,40.57-10.3,20-15.55,38.6-10.89,59,6.16,27,31.55,50.36,38.83,79.64,0,.17.05.25.08.42s0,.26.07.43a153.85,153.85,0,0,1-16.51,4.62q-9.07,2.05-18.19,4.15t-18,4.28a104.24,104.24,0,0,0-16.36,5.43c-.41-1.06-.71-6.23-3.81-15.23-4.9-14.21-13.07-27.54-20.71-40.37-13.66-22.93-18.27-44.63-10.13-68.88,11.82-35.19,34.49-60.89,25.79-101.87l-.53-.32a36.31,36.31,0,0,0-13.54.12q-7.8,1.35-15.49,3.1c-5.11,1.16-9.8,2.27-14,3.33s-8.09,1.86-9.14,1.34c-.76-.37-2.21-3.67-4.15-8.06s-4.23-9.73-6.75-16-5.16-13-7.47-20.36a84.7,84.7,0,0,1-4.12-21.32c0-.27-.12-.4-.26-.37s-.23-.09-.27-.37c29.71-7.63,59.64-16.29,89.08-23A345.81,345.81,0,0,1,1227.24,2301.46Z" transform="translate(-645.18 -97.76)" fill="#fbc27e"/><path d="M1314.69,2308.75c4,1,6,1.51,10,2.58.09.67.13,1,.23,1.69,5.73,24.74,17.4,49.71,21.67,72.62,5,26.88-5.7,48.58-19.16,74.39-14,26.76-22.65,48.47-12.5,74.67,8.71,22.46,31.15,46.8,37.22,73.14-1.85,1.66-6.4,1.76-13.46.49s-14.71-2.87-23-4.64-16.2-3.26-23.83-4.48-12.83-1.28-15.57-.57c-2.21-27.65-23.39-53-32.66-76.16-10.71-26.77-1.21-49.86,12.17-77.4,12.25-25.2,22-48.17,14-75.89-6.88-23.84-15.75-46.84-18.63-72.08,0-.33,0-.5-.09-.84,1.38-.2,4.13,0,8.26.83s7.22,1.32,9.13,1.61c5,.75,10.93,2.1,17.55,3.68S1302.23,2305.93,1314.69,2308.75Z" transform="translate(-645.18 -97.76)" fill="#fbc27e"/><path d="M1425.1,2577.58c3.34,17.63,9.3,35.4,5.75,53.51a4.86,4.86,0,0,1-.91,1.73q-2.43-.36-5.51-1.13c-2-.51-5-1.36-8.68-2.55l-14.51-4.63c-6-1.89-13.6-4.19-23-6.75l-.42-.13c-1.11-.33-1.36-2.21-1.33-5.63s0-7.15-.35-11.18-.82-7.83-1.33-11.39a40.32,40.32,0,0,0-1.42-6.88c-1.6-5.57-3.34-11.1-4.76-16.62a55.27,55.27,0,0,1-2-16.24,44.61,44.61,0,0,1-.42-6.87,38.2,38.2,0,0,1,2.91-14.39c2.68-6.81,8.67-16.4,19.87-28.55,15.19-16.48,32.55-31.53,46.1-49.59a57.13,57.13,0,0,0,10.64-22.31,121.42,121.42,0,0,0,2.37-22.25,52.88,52.88,0,0,0,.25-6c0-3.53-.11-8-.29-13.48s-.62-11.68-.76-18.67a121.86,121.86,0,0,1,1.2-21.62,59.54,59.54,0,0,0,13.46,4.23c5,1,10,1.79,15,2.43s9.89,1.43,14.68,2.37a42.15,42.15,0,0,1,12.57,4.41,22.4,22.4,0,0,0-.69,3.47c-.11,1-.28,2.25-.47,3.88a156.15,156.15,0,0,0-.18,18.92c.63,13.19,1.6,26.33,1.88,39.61a85.49,85.49,0,0,1-4.73,22c-2.67,7.26-7,14.5-12.21,21.73-12.24,15-25.83,29.29-38,43.68-10.11,11.94-21.87,25.83-25.18,42.19a62.32,62.32,0,0,0-.6,11.46A101.06,101.06,0,0,0,1425.1,2577.58Z" transform="translate(-645.18 -97.76)" fill="#fbc27e"/><path d="M1615.9,2420.1a7,7,0,0,0-.77,3.05,19.85,19.85,0,0,1-.39,3c-.38,1,.63,6,.93,15.11s-1.36,20.11-6.71,32.72c-5.75,13.56-13.39,26.63-20,39.71-6.85,13.54-10.61,25.56-10.56,35.25,0,8,3.81,15.6,10.14,22.57s15.89,11.39,24.61,10.8c6.15-.42,12.16-3.53,16.62-7.47s6.81-9.21,7.63-15.63c.94-7.32.7-14.64.41-21.74s1.93-14.47,6-22.08a80.28,80.28,0,0,0,13.56-3.64c5.17-1.81,10.38-3.53,15.6-5.12s10.32-3,15.3-4.25a57.69,57.69,0,0,1,13-1.92c-.51,14,1.9,29.53,5.81,42.87s7.07,29.66,6,43.43c-1,12.94-9.4,28.75-18.27,37.76-11.35,11.53-26.19,18.16-41.16,24a117.5,117.5,0,0,1-32,7.8,79.42,79.42,0,0,1-31.48-3.43c-10.27-3.22-19.93-8.91-29.93-16.45a122.09,122.09,0,0,1-27.56-29.28c-6.48-10-12.75-20.63-16.25-31.62s-3.58-23.51,1.22-37.3c5.71-16.43,15-32.14,23-47.62,10.7-20.67,13-41,7.45-60.84-1.24-4.46-3.19-9.62-3.92-14.52a91.88,91.88,0,0,1-1-13.67c0-7.11.51-14.1,2.39-20.45a47.39,47.39,0,0,1,9.67-17.43,50.52,50.52,0,0,1,9.41-6.86q5.3-3,11.22-5.71a143.65,143.65,0,0,1,39.12-13.33c12.94-2.31,25.2-2.95,37.23-1.38a123.2,123.2,0,0,1,35.35,10.29,117.88,117.88,0,0,1,32.11,21.3c9.42,8.88,16.76,19.74,20.18,31.43,4.2,14.36-2.81,27.67-9.46,39.93a173,173,0,0,1-32.49,11.86,252.94,252.94,0,0,1-30.4,5.46,129.24,129.24,0,0,0,3-18,36.58,36.58,0,0,0-3.4-18.19,24.62,24.62,0,0,0-11.4-11.88c-5-2.57-12.37-2.88-20-.18-3.44,1.22-7.32,3.17-11.24,5S1617.56,2417.37,1615.9,2420.1Z" transform="translate(-645.18 -97.76)" fill="#fbc27e"/><path d="M1911.79,2307.66c6.4,26.22,19.07,50.1,25.66,76.15,7.17,28.34-1.54,48.44-13.32,74-9.75,21.17-20.5,42.32-14.51,66.3,7.49,30,31.17,54.64,41.56,83.91-4.65-.43-9.72-1.18-15.18-2.2s-10.82-2.07-16-3.12-10.31-2-15.25-2.75a108.31,108.31,0,0,0-12.46-1.32l-.42,0c-2.56-9.5-7.3-19.23-12.94-29.24s-12.2-19.92-17.79-29.75-10.49-19.69-12.81-29.6-1.87-19.49-.19-28.78c-.12-.19-.18-.28-.29-.47a87,87,0,0,0-23.93-3.37c-8.22,0-22,.68-25.7,4.19-4.45,4.18-4.93,19.94-2.59,29.51s7.17,19.11,12.77,28.62,11.55,18.82,16.26,28,10.17,23.06,8,27.46c-.91,1.89-7.55,3.83-13.28,4.66s-11.51,1.53-17.34,2.06-11.31,1.27-16.39,2.14-8.81,2.37-11.23,4.43c-1.61-7.77-5.88-18.56-14.11-31.81-9.3-15-19-29.69-26.31-45.39-8-17.32-4-37.4,4.34-54.51,9.26-19.12,21.13-38.28,25.42-58.73,3.87-18.43-2.28-38.23-8.77-55.81-5.74-15.56-12.17-31.76-14.47-48.42,0-.16,0-.25-.06-.42l.43-.11.87-.22a62.1,62.1,0,0,0,13.78-2.5q7.07-2.09,14.13-3.95t14-3a42.22,42.22,0,0,1,13.15-.22c6.15,19.14,15.88,37.29,22,56,6.32,19.18,9.09,33.6,8.34,54.2l.43,0a90.87,90.87,0,0,0,22.55.18c8.46-.82,16.32-1.14,23.58-1.18l.42,0c7.69-17.56,5.36-36.93-.72-54.53-6.41-18.56-14.61-36.48-19-55.69a58.33,58.33,0,0,1,12.07-1.63,108.3,108.3,0,0,1,15.24.43,115.93,115.93,0,0,1,15.84,2.68C1902.77,2305,1907.53,2306.34,1911.79,2307.66Z" transform="translate(-645.18 -97.76)" fill="#fbc27e"/><path d="M2141.65,2477.29a23.64,23.64,0,0,1,.58,9.54,48.55,48.55,0,0,1-2.37,9.78,161.59,161.59,0,0,1-7,15.37c-2.51,5.07-5.17,10.26-7.8,15.35-5.64,10.89-9.48,21.51-9.44,31.66s2.85,20.44,6.73,30.89c1.4,4,2.21,6,3.91,9.93a99.41,99.41,0,0,1,7.64,21.12c1.53,7,1.19,13.8-1.62,18.81-2.44,4.36-7.94,7.74-15,9.57a89.28,89.28,0,0,1-23.58,2.43,124.67,124.67,0,0,1-23.67-2.6,194.14,194.14,0,0,1-24.33-6.77c-5.9-2.08-11.68-4.43-17.24-6.83a129.41,129.41,0,0,1-16.06-8.35,133.74,133.74,0,0,1-14.63-10.38,126.58,126.58,0,0,1-13.08-12.85,223.61,223.61,0,0,1-15.76-18.53c-4.44-6.1-8.8-12.13-12.38-18-10-16.47-19.43-31.83-20.25-48.13-.84-16.67,7.34-31,17.07-48.36,5.16-9.18,11.89-18.11,18.83-26.6A69.57,69.57,0,0,1,1996.7,2425a43,43,0,0,1,10-2.44,152.93,152.93,0,0,1,29.82,2.18,270,270,0,0,1,32.38,7.44c10.91,3.17,21.69,6.92,32.17,11.13s20.44,8.79,27.75,14.14C2136.4,2463,2140.89,2470,2141.65,2477.29Zm-101.79-140.65c26.11,30.61,56.64,55.71,88,80.74-.38-.3-1.77-.33-4.17-.14s-5.71.33-9.9.34a117.68,117.68,0,0,1-14.85-1,102.6,102.6,0,0,1-19.12-4.56c-.85-.19-2.56-1.42-5.16-3.7s-5.38-4.86-8.37-7.76l-8.7-8.47a62.15,62.15,0,0,0-6.82-5.95,7.18,7.18,0,0,0-3.15,2.75c-1.19,1.57-2.46,3.24-3.85,5s-2.73,3.33-4,4.72-2.57,2.13-3.52,2a36.16,36.16,0,0,1-6-1.4c-1.55-.47-3.69-1.17-6.41-2.13s-6.6-2.34-11.63-4.15-12.28-4.46-21.77-7.93c5.23-9.92,11-18.3,19.38-25.36A335.57,335.57,0,0,1,2039.86,2336.64Zm16.49,205.72a75,75,0,0,1,4.6-17c.07-.17.57-1.9,1.69-5.2s2.36-6.41,3.52-9.27a22.67,22.67,0,0,0,1.38-13.85,18.83,18.83,0,0,0-7.93-11.38,28.28,28.28,0,0,0-13.47-4.36,50.34,50.34,0,0,0-14.66.73c-10.21,2.21-19.07,6.35-24.83,12.49a63.51,63.51,0,0,0-12,18.92c-2.81,6.83-4.79,14.2-4.21,20.75.51,5.73,2.55,12.1,4.76,18.15a56.88,56.88,0,0,0,11,18.1c3.52,3.89,8.52,7.39,13.79,10.41a78.88,78.88,0,0,0,15.54,7,47.85,47.85,0,0,0,14,2.44c4.26,0,7.32-1,9.25-3a15.19,15.19,0,0,0,2-3.76,6.28,6.28,0,0,0-.19-3.65,51.64,51.64,0,0,0-2-5.18,34.46,34.46,0,0,1-2.15-8c-.52-3.11-.94-6-1.09-8.42s-.08-3.79-.09-4.12A45.82,45.82,0,0,1,2056.35,2542.36Z" transform="translate(-645.18 -97.76)" fill="#fbc27e"/></svg>