<svg id="Calque_1" data-name="Calque 1" xmlns="http://www.w3.org/2000/svg" viewBox="0 0 697.72 130.31"><title>Titre logo articho</title><path d="M345,245.91a20.94,20.94,0,0,0,1.89,1.64,11,11,0,0,0,4.28,1.37.9.9,0,0,0,.28,0,9.59,9.59,0,0,0,3.92-1.24c1.78-1.14,3.56-2.28,5.32-3.47a6.48,6.48,0,0,0,2.08-2.36c.7-1.34,1.37-2.7,2.11-4a11.08,11.08,0,0,0,1.55-5.4c0-.58,0-1.16,0-1.73l.1,0a9,9,0,0,0-.47-2.12,17.49,17.49,0,0,0-3.07-4.64c-.73-.77-1.47-1.53-2.18-2.31a5.5,5.5,0,0,0-2.81-1.76c-.62-.15-1.24-.35-1.85-.53a2.59,2.59,0,0,0-1.51,0,43.12,43.12,0,0,0-8.23,3.22,10.61,10.61,0,0,0-2.31,1.55,14.84,14.84,0,0,0-4.11,6.3,3.68,3.68,0,0,0-.24,1.13c0,2-.07,4-.06,6a6.39,6.39,0,0,0,1,3.27A22.17,22.17,0,0,0,345,245.91Z" transform="translate(-70.28 -188.46)" fill="#283c8d"/><path d="M367,269.22c-.3-8.32-.4-5.6-.38-6.47.07-2.43.34-4-.65-4.93a3.66,3.66,0,0,0-3-.64c-2.91-.08-5.39-.12-7.3-.15-5.21-.08-7,0-8.65,0-1.9.07-3.47.17-4.55.26a3.41,3.41,0,0,0-2.88.44c-.72.64-.62,1.57-.62,5.52,0,0,.05,2.28,0,4.93,0,1.63-.09,2.35-.19,4.25,0,0-.21,4.53-.27,9,0,2.21.06,4.41.08,6.62.08,8.14.17,12.21.11,14.06,0,.42-.05,1.75,0,3.53,0,1,.1,1.77.13,2.2,3.46.23,6.26.48,8.18.65,4.42.42,5.24.59,7.78.65a52.06,52.06,0,0,0,7-.13,32.36,32.36,0,0,0,4.93-.91,11.6,11.6,0,0,0,.52-3,21.38,21.38,0,0,0-.13-2.59c-.06-.95,0-1.47,0-3.9.13-6,.08-4.63.13-6.48.13-4.58.16-4.24.18-5.85,0-2.16,0-2.68-.18-7.17C367.13,274.35,367.17,273.83,367,269.22Z" transform="translate(-70.28 -188.46)" fill="#283c8d"/><path d="M326.56,222.29a3,3,0,0,0-.42-1.87,2.11,2.11,0,0,0-.45-.09c-3.2-.05-6.4-.16-9.6-.14a81,81,0,0,1-10.21-.3c-1.55-.18-3.09-.33-4.64-.37-5-.13-10-.24-15-.27-3.67,0-7.34.05-11,.08,0,0-10.58.11-23.4.1-1.47,0-2.48,0-3.8-.08s-1.76-.15-2.75-.18a24.11,24.11,0,0,0-3.61.18c-.27,2.92-.42,5.29-.51,6.87-.3,5.51,0,5.66-.35,10.84a49.52,49.52,0,0,0-.19,5.77,44,44,0,0,0,.43,4.81c.77.07,1.87.17,3.2.26,2.25.15,3.88.18,5.26.23,2.68.09,5.37,0,8,.25a109.43,109.43,0,0,0,11.31.15l.53,0c0,2.22-.08,4.44-.1,6.66-.09,12.78.08,11.17.08,13.09,0,5-.06,14-.26,23.25,0,2.07-.13,6.25.12,11.83.09,2.09.21,3.82.3,5a32.37,32.37,0,0,0,4.1.59c1.26.11,2.06.1,4,.12,3.71,0,3.34.13,5.1.12,4.31,0,4.12-.45,7.49-.34a38.18,38.18,0,0,0,4.49,0c1.14-.07,2.07-.19,2.7-.28a5,5,0,0,0,.51-1.43,7.34,7.34,0,0,0,0-2c.06-2.08.17-4.16.22-6.25.1-3.44.21-6.57.26-9.57,0-1.37,0-3.32,0-11,0-5.68-.09-10.17-.13-13.5-.08-6.56-.15-11.7-.19-14.2l0-2.67c2.86-.05,5.71-.11,8.57-.14,7.24-.09,10.87-.12,12.25-.06,1.54.06,3.1,0,4.65,0a11.79,11.79,0,0,0,1.37-.06,13.3,13.3,0,0,0,1.49-.25c.1-.57.23-1.5.31-2.64.13-1.76,0-2.72.06-4.67,0-1.34.06-1.86.15-3.69C327.37,226.86,326.66,223.55,326.56,222.29Z" transform="translate(-70.28 -188.46)" fill="#283c8d"/><path d="M146.83,294s-.93-1.82-1.84-3.69c-7-14.44-17.12-36.11-17.12-36.11-1.34-2.95-2.52-5.37-3.38-7.09-2.11-4.22-4-7.58-7.79-14.31-.53-1-1.77-3.16-3.47-6-1.57-2.61-2.19-3.61-2.9-4.63a52.51,52.51,0,0,0-3.28-4.25,62.24,62.24,0,0,0-4.46,8c-.6,1.3-1,2.28-1.16,2.66-2,4.29-4.49,9.59-7.22,15.79-2.88,6.55-5.43,13.29-8.1,20-2.84,7.12-5.65,14.25-8.49,21.38-1.56,3.17-2.74,5.87-3.56,7.85-.71,1.72-1.1,2.77-1.86,4.87-2.14,5.91-2.19,7.1-1.59,7.88.32.41,1.08,1,3.08.94,1.68.09,4.09.21,7,.28,5.69.13,4.74-.09,11,0,1.39,0,2.79-.14,4.18-.18,2.32-.06,3.63,0,4.49-1A3,3,0,0,0,101,305c.36-1.41.61-2.55.77-3.34a17.43,17.43,0,0,1,.59-2.34,13,13,0,0,1,.71-1.7,15.31,15.31,0,0,1,2.63-3.65,1.36,1.36,0,0,1,.42-.38c1.72-.66,3.43-1.53,5.27-1.41,1.65.11,3.13,1.21,4.45,3,2.83,3.9,2,6.89,5.4,10.81a13.73,13.73,0,0,0,1.61,1.56c12,0,17.07-.17,19.49-.33s3.23-.38,5.86-.4a14.67,14.67,0,0,0,4-.28C153,305.92,152.34,303.07,146.83,294Zm-32.38-19.16-5.87.95a36.45,36.45,0,0,0-7.23,2c-.36.14-.73.21-1.18.34a8.1,8.1,0,0,1-.07-.93,53.22,53.22,0,0,1,1.33-10.74c.38-1.5.89-2.89,1.39-4.3a8.38,8.38,0,0,1,2-3.08,1,1,0,0,1,.25-.22c1-.38,5-.11,5.81.93a21,21,0,0,1,3.22,6.22,26.92,26.92,0,0,1,.83,4.07c.17,1.1.21,2.22.27,3.34S115.15,274.75,114.45,274.87Z" transform="translate(-70.28 -188.46)" fill="#283c8d"/><path d="M205.94,273.88A65.38,65.38,0,0,0,220,265.55c2.36-1.83,6.49-5.73,7.48-11.29.56-3.13-.17-5.41-1.63-10A35.79,35.79,0,0,0,217,228.81a28,28,0,0,0-9.8-6.64c-.75-.29-2.44-.9-8.55-1.88-3-.49-7.1-1.06-12-1.5a48,48,0,0,0-7.91,0,56.07,56.07,0,0,0-7.9,1.14,15.94,15.94,0,0,0-.62,2.13,20.47,20.47,0,0,0-.34,2.32c-.17,1.5-.71,6.2-.81,8.2,0,0,0,.62-.07,1.4-.07,1.49-.1,2.3-.27,5.92-.6,12.6-.6,11.26-.68,13.95-.21,6.9.07,8-.17,17.86-.06,2.48-.12,4.27-.17,5.78-.23,6.89-.56,16.66-1,31.39,2.34-.06,3.83,0,5.31-.13,4.12-.3,10.77-.41,14.89-.7.21-6.89.24-12.65.46-19.54,0-1.17,1.08-3.9,1.41-3.5,6,7.24,9.62,14.21,15.65,21.43q10.16-.72,20.31-1.41c2.68-.17,4.16-1,5.35-2.81-.73-1-1.47-2.2-2.42-3.29C220.4,290.59,213.34,282.15,205.94,273.88Zm-1.35-20.8a1.68,1.68,0,0,1-.17.42A10.17,10.17,0,0,1,202,257a35.87,35.87,0,0,1-3.5,2.73,22.13,22.13,0,0,1-3.34,1.74,35.59,35.59,0,0,1-5.49,1.71,3.59,3.59,0,0,1-.76,0c.08-.72.13-1.31.23-1.89q.6-3.53,1-7.08c.16-1.49.3-3,.39-4.48q.27-4.65.57-9.3c.06-1.1.22-1.3,1.15-1.34a15,15,0,0,1,2.76,0,12,12,0,0,1,3.4.79,14.45,14.45,0,0,1,5.26,4.24,6.68,6.68,0,0,1,1.54,3.92A23,23,0,0,1,204.59,253.08Z" transform="translate(-70.28 -188.46)" fill="#283c8d"/><path d="M681.79,261.1c-1.39-1.47-2.82-2.92-4.18-4.42a10.6,10.6,0,0,0-5.39-3.36c-1.19-.29-2.37-.65-3.55-1a5.11,5.11,0,0,0-2.9,0A82.94,82.94,0,0,0,650,258.47a21.34,21.34,0,0,0-4.44,3,28.46,28.46,0,0,0-7.88,12.05,7.19,7.19,0,0,0-.46,2.15c-.07,3.8-.13,7.61-.11,11.41a12.32,12.32,0,0,0,1.95,6.25,42.91,42.91,0,0,0,8.22,9.88,40,40,0,0,0,3.63,3.14c2.43,1.72,5.38,2,8.19,2.62a1.48,1.48,0,0,0,.55,0,18.51,18.51,0,0,0,7.52-2.37c3.41-2.19,6.83-4.37,10.21-6.63a12.25,12.25,0,0,0,4-4.53c1.35-2.55,2.63-5.14,4-7.66a21.35,21.35,0,0,0,3-10.32c0-1.1,0-2.21,0-3.31l.2-.05a17.8,17.8,0,0,0-.89-4A33.72,33.72,0,0,0,681.79,261.1Z" transform="translate(-70.28 -188.46)" fill="#283c8d"/><path d="M692.41,237.35c-1.14-.95-2.29-1.79-3.39-2.61-.81-.59-1.6-1.18-2.38-1.8l-2.59-2q-1.51-1.17-3-2.37c-1.43-1.14-2.84-2.3-4.25-3.46l-5.63-4.62v-5.14l-16.86-.94.26,5.48-.24.23-.16.14-4.3,4c-3.44,3.22-7,6.55-10.53,9.77-.59.54-1.17,1.09-1.75,1.64a39.33,39.33,0,0,1-4.37,3.77,8.25,8.25,0,0,0-1.68,1.66c-.1.12-.2.25-.32.37l-2,2.17,1.92,2.24c1.55,1.8,5,5,6.85,5.84l2.09,1,5.14-5.06c2.65-2.61,5.29-5.22,8-7.81,3.29-3.18,6.71-6.29,9.8-9.08.78.63,1.54,1.24,2.28,1.87,1.48,1.24,2.93,2.51,4.31,3.77s2.73,2.55,4.06,3.83c.85.81,1.7,1.65,2.55,2.48l1.62,1.59c.45.44.88.9,1.32,1.36a31.2,31.2,0,0,0,2.9,2.82l2.33,1.9,3.17-3.17c.68-.67,1.33-1.33,2-2,.31-.31.64-.59,1-.87a16,16,0,0,0,2.42-2.4l2-2.53Z" transform="translate(-70.28 -188.46)" fill="#283c8d"/><path d="M527.81,222.47c-3.48-.52-6.95-1.13-10.45-1.55a33,33,0,0,0-6.5-.29c-11.75.88-22.48,4.21-31.61,11.18a23.47,23.47,0,0,0-8.41,11.59c-2.4,7.37-2.76,14.81-2.18,22.43A18.81,18.81,0,0,0,473,276.59c2.85,3.51,5.64,7.08,8.83,10.31a74.25,74.25,0,0,0,32.12,19.42c4.85,1.43,9.92,1.81,15.5,2.53.06-1.88.16-3.27.15-4.66-.08-10.84.2-28.44.2-28.44h-.7l-7.58-.75-4.15-1a6,6,0,0,1-1.83-.89,5.85,5.85,0,0,1-1.23-1.18,5.87,5.87,0,0,1-.57-3,18.66,18.66,0,0,1,.15-2.13,17.57,17.57,0,0,1,.62-2.88,14.39,14.39,0,0,1,.73-1.85,15.14,15.14,0,0,1,2.13-3.28,13.56,13.56,0,0,1,3.08-2.69,16.84,16.84,0,0,1,1.52-.81,16,16,0,0,1,1.62-.65,9.42,9.42,0,0,1,1.78-.64c.39-.1.63-.14,1.74-.32l1.56-.27,1.91-.39s.78-15.36,1.55-25.55C532.35,224.09,531.45,223,527.81,222.47Z" transform="translate(-70.28 -188.46)" fill="#283c8d"/><path d="M612.45,229.71c.09-3.51-.49-4.26-3.5-4.34-1.8,0-3.62,0-5.42.08l-14,.39c-.11,1.57-.23,2.41-.25,3.26-.2,7.93-.4,23.7-.6,31.63a3.63,3.63,0,0,0-.21.48c-1.87.35-3.75.7-5.62,1l-1.73.22c.07-8.13.14-24.1.21-32.22,0-4-.38-4.51-3.48-4.35-3.35.17-6.71.32-10.06.51-4.28.25-8.56.53-13.3.83-.12,1.77-.26,3-.3,4.29q-.72,28.5-.82,33.46-.43,19.94-.79,39.88c-.06,3.74.39,4.25,3.06,4,3.35-.29,6.71-.72,10.07-1.07,4.19-.42,8.39-.77,12.58-1.25,2.08-.23,2.32-.67,2.47-3.45,0-.57,0-1.14,0-1.71l.15-19.53c-1.1.13,6.64-.6,7-.62-.25,7.83-.59,15.67-.82,23.51-.11,4.22.62,5,4.23,4.82,4.95-.23,9.9-.52,14.84-.84,1.65-.1,3.29-.33,5.21-.53.07-2.05.18-3.74.18-5.42,0-12.6-.2-25.2-.06-37.79C611.65,253.2,612.12,241.46,612.45,229.71Z" transform="translate(-70.28 -188.46)" fill="#283c8d"/><path d="M408.28,318.77a89.55,89.55,0,0,1-9-4c-1.65-.84-3.16-1.67-4.51-2.46.58-1.67,1.41-4,2.51-6.72,1-2.5,1.84-4.38,2.29-5.36,3.45-7.68,9.58-20.27,12.84-27.21,2-4.27,4-8.55,6-12.8q4.17-8.72,8.43-17.39c.87-1.78,1.8-3.54,2.74-5.29,2.08-3.86,3.92-7.84,5.79-11.8,1.75-3.73,3.56-7.42,5.36-11.13.08-.17.2-.34.29-.49.5-.39.82-.13,1.18,0a34.4,34.4,0,0,1,7.37,3c1.84.94,3.63,2,5.49,3-.18.5-.31.92-.49,1.32-1.24,2.58-2.48,5.15-3.7,7.73-2.24,4.74-4.5,9.48-6.72,14.23q-4.51,9.66-9,19.32c-2.17,4.64-4.34,9.26-6.49,13.91-1.67,3.6-3.29,7.24-5,10.84-2,4.4-4.07,8.79-6.31,13.09-1.59,3.06-3,6.2-4.57,9.29-.53,1.09-1.51,3.22-3,6.05C409.2,317.12,408.65,318.1,408.28,318.77Z" transform="translate(-70.28 -188.46)" fill="#283c8d"/><path d="M175.94,207.89" transform="translate(-70.28 -188.46)" fill="#283c8d"/><path d="M176.22,210.76" transform="translate(-70.28 -188.46)" fill="#283c8d"/><path d="M168.75,218.24" transform="translate(-70.28 -188.46)" fill="#283c8d"/><path d="M171.05,210.48" transform="translate(-70.28 -188.46)" fill="#283c8d"/><path d="M767,208.65a38.44,38.44,0,0,0-7-10c-1.64-1.67-3.33-3.3-5-5a12.57,12.57,0,0,0-6.36-3.81c-1.42-.32-2.81-.73-4.2-1.14a6.34,6.34,0,0,0-3.43,0,100.82,100.82,0,0,0-18.66,7,25.14,25.14,0,0,0-5.25,3.34,32,32,0,0,0-9.31,13.61,7.34,7.34,0,0,0-.55,2.42c-.09,4.3-.15,8.6-.13,12.9a13.52,13.52,0,0,0,2.3,7.05,49.25,49.25,0,0,0,9.73,11.16,45.16,45.16,0,0,0,4.28,3.54c2.88,1.95,6.36,2.28,9.69,3a2.06,2.06,0,0,0,.65,0,22.42,22.42,0,0,0,8.89-2.68c4-2.46,8.08-4.93,12.07-7.48a14.07,14.07,0,0,0,4.71-5.11c1.59-2.89,3.11-5.82,4.78-8.66A23.24,23.24,0,0,0,767.75,217c0-1.24,0-2.49,0-3.74l.23-.05C767.66,211.7,767.63,210,767,208.65Zm-28.22,24.14v.41a2.77,2.77,0,0,1-.35,1.26c-.17.31-.32.63-.48.94a1.5,1.5,0,0,1-.48.55l-1.21.82a2.17,2.17,0,0,1-.89.29h-.07a2.42,2.42,0,0,1-1-.32,3.89,3.89,0,0,1-.43-.38,5.2,5.2,0,0,1-1-1.21,1.51,1.51,0,0,1-.23-.77c0-.46,0-.93,0-1.39a.88.88,0,0,1,.06-.27,3.55,3.55,0,0,1,.93-1.47,2.36,2.36,0,0,1,.53-.36,9.61,9.61,0,0,1,1.88-.76.56.56,0,0,1,.34,0l.42.12a1.27,1.27,0,0,1,.64.42l.5.54a4.26,4.26,0,0,1,.7,1.08,2.61,2.61,0,0,1,.11.5ZM746.31,206c-.22,2.87-.43,7.21-.43,7.21h-.1l-2.37.56L742,215l-.66,1.47-.09,1.2.21,1,.22.1,1.15.47,2.64.41h.2s-.08,5-.06,8c0,.39,0,.79,0,1.32a27,27,0,0,1-4.26-.72,20.27,20.27,0,0,1-8.82-5.48c-.88-.91-1.65-1.92-2.43-2.9a5.47,5.47,0,0,1-1.19-3,16.53,16.53,0,0,1,.6-6.33,6.71,6.71,0,0,1,2.31-3.27,15.57,15.57,0,0,1,8.69-3.15,9,9,0,0,1,1.79.08c1,.12,1.91.29,2.87.44S746.38,205.06,746.31,206Z" transform="translate(-70.28 -188.46)" fill="#283c8d"/></svg>