<svg id="Calque_1" data-name="Calque 1" xmlns="http://www.w3.org/2000/svg" viewBox="0 0 1725.91 2061.5"><title>Articho droit</title><polygon points="1053.45 1587.6 965.09 1567.82 934.52 1613.71 933.55 1615.17 932.53 1615.9 875.49 1657.58 845 1708.81 856.68 2047.69 875.39 2027.91 879 2024.08 882.46 2029.33 904.01 2061.5 904.01 2057.33 904.01 2000.9 918.3 2017.15 941.07 2043.01 952.72 2001.24 958.23 1981.41 965.12 1993.8 995.69 2048.64 1012.93 1998.44 1016.51 1987.99 1021.01 1990.01 1080.52 2016.81 1104.17 1923.43 1070.71 1608.29 1053.45 1587.6" fill="#213589"/><polygon points="1376.07 1246.86 1487.8 1169.71 1487.8 1059.7 1488.82 1023.47 1371.43 880.25 1281.69 889.67 1141.01 1011.72 1013.48 1186.28 1010.37 1190.55 1005.22 1191.89 946.5 1207.19 934.2 1232.09 1000.49 1400.43 1124.34 1362.31 1216.12 1314.69 1376.07 1246.86" fill="#213589"/><polygon points="767.14 1488.62 916.66 1500.13 1005.22 1478 1005.22 1464.23 947.52 1431.61 890.68 1397.33 887.47 1395.4 885.56 1392.2 862.09 1352.66 724.2 1374.36 643.19 1418.81 658.76 1446.49 767.14 1488.62" fill="#213589"/><polygon points="898.49 1195.68 849.45 1158.91 786.45 1106.66 784.84 1105.31 783.63 1103.56 718.37 1007.09 717.22 1005.36 716.54 1003.35 703.85 964.39 655.08 918.3 614.32 926.04 613.34 926.22 612.39 926.28 545.26 930.25 497.07 955.4 401.08 1051.83 378 1143.04 380.69 1185.77 481.5 1284.67 548.26 1322.08 624.95 1333.05 627.3 1333.37 629.43 1334.42 663.36 1351.07 705.25 1329.46 707.26 1328.42 709.5 1328.03 875.62 1298.74 884.85 1297.12 890.29 1304.72 919.77 1345.97 903.86 1298.56 884.07 1229.86 882.32 1223.8 885.45 1218.32 898.49 1195.68" fill="#213589"/><polygon points="977.58 1147.31 1036.46 1066.61 1089.83 982.28 1091.02 980.42 1092.65 979.01 1199.8 885.94 1223.56 860.03 1209.64 831.9 1174.74 761.06 1119.5 685.92 1050.12 637.53 983.46 613.55 888.22 613.55 833.12 648.64 784.16 751.9 756.41 830.27 756.02 831.44 755.39 832.52 715.48 904.62 752.15 936.45 755.52 939.37 756.7 943.66 772.47 1000 832.65 1068.36 893.52 1129.19 938.52 1160.96 977.58 1147.31" fill="#213589"/><polygon points="1283.9 839.36 1387.31 812.58 1442.81 704.51 1462.02 597.35 1462.02 491.06 1367.5 389.83 1269.69 348.52 1221.62 322.61 1172.47 339.39 1139.93 368.61 1104.67 399.38 1091.43 468.14 1090.38 473.52 1086.12 476.94 1031.38 520.75 1006.6 560.38 1006.6 569.83 1068.84 584.18 1072.7 585.09 1075.64 587.79 1157.9 664.24 1216.94 713.82 1219.1 715.65 1220.47 718.17 1274.39 818.26 1283.9 839.36" fill="#213589"/><polygon points="503.18 878.64 504.23 885.99 504.23 886 528.64 874.63 531.6 873.24 534.92 873.24 620.97 873.24 661.11 862.63 703.42 784.52 742.59 694.87 777.32 622.79 745.55 506.32 688.76 436.61 579.24 420.62 512.55 420.62 442.27 488.27 383.85 616.21 360.78 669.15 378.03 679.61 381.56 681.75 383.48 685.39 411.88 739.3 412.92 741.27 413.33 743.46 424.32 801.35 444.3 846.29 496.68 875.07 503.18 878.64" fill="#213589"/><polygon points="210.4 737.99 196.06 805.3 196.06 885.38 196.06 886.4 195.93 887.37 184.1 974.03 205.65 1037.6 233.15 1102.78 252.32 1132.54 271.34 1157.23 329.46 1117.03 356.27 1037.64 357.24 1034.68 359.35 1032.38 463.32 918.36 463.32 907.52 415.97 882.03 411.81 879.79 409.71 875.52 380.61 816.74 379.72 814.94 379.33 812.98 368.82 758.57 348.29 717.02 312.64 691.18 261.64 685.87 235.67 694.58 210.4 737.99" fill="#213589"/><polygon points="626.39 373.97 676.54 385.13 718.98 398.37 721.98 399.3 724.34 401.36 771.68 442.79 774.01 444.81 775.3 447.56 806.53 512.82 806.83 513.52 807.1 514.25 830.67 580.2 870.95 567.48 872.01 567.14 873.14 566.97 946.91 555.64 948.05 555.45 949.18 555.45 959.4 555.45 983.84 501.02 985.46 497.41 988.65 495.08 1042.14 456.22 1059.49 375.65 1060.6 370.44 1064.78 367.14 1119.09 324.14 1145.19 301.17 1147.07 299.51 1073.8 230.7 965.37 173.77 824.57 173.77 752.41 204.81 697.7 289 695.91 291.79 693.09 293.53 654.65 317.38 626.39 359.22 626.39 373.97" fill="#213589"/><polygon points="1517.3 506.2 1517.3 598.68 1517.3 600.15 1517.01 601.62 1491.46 728.14 1491.06 730.17 1490.09 732.03 1426.64 854.82 1488.18 926.64 1529.67 974.35 1585.35 850.79 1616.25 769.95 1643.07 704.88 1624.42 603.63 1604.3 565.88 1567.04 536.63 1525.65 502.5 1517.3 506.2" fill="#213589"/><polygon points="1685.48 713.04 1684.43 716.11 1634.13 865.8 1633.86 866.63 1633.48 867.41 1571.68 998.31 1548.54 1062.32 1548.54 1144.67 1618.41 1083.23 1677.06 980.03 1711.72 922.21 1711.72 813.04 1680.46 664.67 1685.13 709.82 1685.48 713.04" fill="#213589"/><polygon points="1660.3 1107.88 1659.33 1109.77 1657.87 1111.29 1585.2 1186.64 1568.39 1214.07 1568.39 1228.11 1597.83 1228.57 1647.62 1181.49 1712.55 1103.38 1725.91 1020.28 1725.91 986.6 1719.35 995.37 1660.3 1107.88" fill="#213589"/><polygon points="1196.42 277.77 1225.61 271.93 1230.33 270.98 1234.75 273 1298.59 302.53 1355.14 320.85 1357.01 321.45 1358.66 322.52 1420.86 362.92 1422.38 363.92 1423.58 365.23 1506.53 453.62 1518.07 449.35 1513.53 384.91 1363.13 216.75 1255.65 172.64 1252.37 171.3 1250.04 168.62 1223.66 138.13 1159.12 80.11 1101.54 80.11 1088.85 116.05 1088.85 169.05 1105.51 197.56 1196.42 277.77" fill="#213589"/><polygon points="567.86 231.83 462.03 280.18 335.61 438.19 308.04 537.42 288.73 614.71 288.73 641.99 313.14 641.99 348.67 574.71 393.47 465.35 395.01 461.63 398.2 459.19 443.61 424.46 511.13 367.44 515.28 363.92 520.71 363.92 573.06 363.92 583.53 337.8 584.26 335.98 585.42 334.42 632.22 271.99 633.33 270.53 634.71 269.38 636.16 268.19 615.2 251.26 567.86 231.83" fill="#213589"/><polygon points="256.3 1341.26 302.62 1405.63 395.93 1429.6 555.83 1452.06 606.51 1452.06 598.76 1439.05 579.32 1409.89 569.62 1395.37 585.54 1388.13 603.92 1379.78 536.62 1373.07 533.33 1372.73 530.5 1371.01 408.13 1298.07 405.95 1296.8 404.37 1294.87 330.58 1206.93 327.1 1202.79 327.1 1197.39 327.1 1189.18 284.89 1220.21 241.73 1287.76 256.3 1341.26" fill="#213589"/><polygon points="1271.49 1460.55 1399.85 1386.85 1509.93 1280.98 1512.77 1243.89 1503.51 1229.89 1321.32 1337.83 1320.49 1338.33 1319.6 1338.7 1147.98 1412.48 1147.28 1412.8 1146.52 1413.01 1062.86 1439 1080.94 1460.55 1271.49 1460.55" fill="#213589"/><polygon points="1612.87 1272.3 1609.13 1274.82 1604.59 1274.82 1562.71 1274.82 1546.96 1306.17 1545.98 1308.1 1544.54 1309.67 1487.74 1370.25 1487.12 1370.89 1486.43 1371.47 1437.87 1412.19 1523.94 1404.12 1585.15 1374.85 1636.42 1332.27 1654.99 1308.3 1654.99 1265.16 1644.04 1251.38 1612.87 1272.3" fill="#213589"/><polygon points="157.7 1052.52 53.11 971.06 9.57 971.06 0 1001.78 28.89 1101.99 124.93 1198.81 200.3 1259.1 226.36 1203.57 239.51 1178.53 213.39 1140.53 157.7 1052.52" fill="#213589"/><polygon points="44.88 915.8 70.6 928.73 128.19 962.67 130.06 963.77 131.51 965.33 146.53 981.41 142.85 958.53 142.47 956.16 142.88 953.74 154.02 886.87 154.02 827.53 134.81 764.78 107.45 665.06 82.32 642.78 62.87 655.13 22.23 710.21 0.11 793.47 23.73 851.26 44.88 915.8" fill="#213589"/><polygon points="170.46 717.33 201.63 667.26 204.13 663.32 208.4 661.47 241.99 647.06 241.99 635.57 241.99 563.94 241.99 494.75 227.62 488.22 198.56 510.58 158.21 550.93 158.21 655.5 169.88 718.28 170.46 717.33" fill="#213589"/><polygon points="269.16 451.15 271.19 458.59 272.68 464.03 276.43 447.8 276.94 445.59 278.05 443.66 329.11 355.73 329.54 354.98 330.08 354.29 401.02 259.24 403.39 256.05 407.03 254.49 460.48 231.41 460.48 217.47 457.11 204.04 378.7 247.85 321.95 293.83 270.21 372.75 244.72 442.25 261.93 448.53 269.16 451.15" fill="#213589"/><polygon points="880.52 1541.35 728.02 1541.35 692.54 1574.52 676.28 1623.2 700.83 1656.66 738.36 1675.29 781.58 1622.12 783.4 1619.84 785.99 1618.42 852.21 1582.35 880.52 1541.35" fill="#213589"/><polygon points="657.91 1490.78 594.04 1501.26 591.98 1501.61 589.93 1501.37 493.45 1490.19 397.43 1481.73 395.3 1481.53 393.31 1480.77 305.12 1446.3 240.51 1446.3 240.51 1468.41 281.26 1501.99 352.41 1526.66 542.25 1511.67 677.3 1511.64 687.81 1503.37 657.91 1490.78" fill="#213589"/><polygon points="1227.03 1605.18 1226.65 1602.07 1220.88 1554.58 1072.78 1530.01 1037.95 1530.01 984 1536.07 1005.35 1542.67 1059.81 1542.67 1066.63 1542.67 1071.08 1547.85 1116.47 1600.49 1116.97 1601.1 1117.44 1601.74 1162.26 1666.33 1224.46 1679.04 1266.3 1679.04 1268.48 1674.67 1228.63 1607.9 1227.03 1605.18" fill="#213589"/><polygon points="1378.44 1463.18 1330.46 1495.57 1327.44 1497.59 1323.84 1498.02 1225.98 1509.14 1225.14 1509.25 1224.31 1509.25 1189.23 1509.25 1272.92 1519.54 1389.8 1534.67 1463.51 1534.67 1418.66 1494.27 1378.44 1463.18" fill="#213589"/><polygon points="660.76 86.59 666.24 89.28 679.22 100.01 786.95 94.01 800.63 100.69 849.71 89.71 858.74 83.4 851.23 30.78 818.31 0 776.19 0 758.44 11.86 660.76 86.59" fill="#213589"/><polygon points="901.3 21.36 904.09 72.59 837.88 136.7 910.97 129 957.46 135 981.51 131.8 1037.51 157.4 1029.43 108.4 1056.42 74.16 1052.93 50.99 1019.14 40.09 901.3 21.36" fill="#213589"/><polygon points="506.22 200.78 573.67 186.49 627.3 208.06 679.16 226.08 699.16 196.29 740.81 153.46 778.24 149.7 761.19 131.21 719.36 131.21 689.66 141.72 647.13 132.48 619.52 117.64 504.52 143.23 494.27 160.81 506.22 200.78" fill="#213589"/><path d="M553.84,2062.7" transform="translate(-575.62 -405)" fill="#213589"/><path d="M554.93,2073.67" transform="translate(-575.62 -405)" fill="#213589"/><path d="M526.42,2102.18" transform="translate(-575.62 -405)" fill="#213589"/><path d="M535.2,2072.57" transform="translate(-575.62 -405)" fill="#213589"/><path d="M551.64,2112" transform="translate(-575.62 -405)" fill="#213589"/></svg>
