<svg xmlns="http://www.w3.org/2000/svg" viewBox="0 0 901.33 1121.2"><title>Artich33</title><g style="isolation:isolate"><g id="Calque_1" data-name="Calque 1"><path d="M1964.24,1366.4c-.86-19.7.84-41.19-3.4-60.48-4.38-20-4.9-60.76-17.45-76.64-14.42-18.25-27.82-38.43-43.89-55.24-27.06-28.32-31.52-34.79-35.41-73.67-1.88-18.81-27.89-36.94-40.15-50.2-13.91-15.06-31.27-43.84-51-51.26-25-9.45-43-15.42-62.66-32.77-22.39-19.81-32.58-32.12-62.06-32.12-23.94,0-24.11-27.84-48.12-29.58-26.66-1.93-48.39-11.86-75.51-13.59-17.76-1.13-49.6,1.26-63.62,11.38-20.91,15.08-45,14.6-70,21.49-51.5,14.18-51.88,56.31-90.62,78.61-43.86,25.25-78.91,53.9-97.67,102.66-4.69,12.2-14.76,24.49-5.93,33.56a272.1,272.1,0,0,0-38.63,33.32c-12.44,12.74-6.52,36.16-6.52,53.33-20.09-9.17-21.61-13.56-38.86.3-9.13,7.34-24.87,25.1-28,36.23-3.58,12.92-14.6,34.23-13.16,47.41,1.63,14.94,14.9,29.76,17.65,45.76,1,5.55,5.2,16.81,3.86,22.41-.74,3.09-10.74,2.54-12.25,7-7.09,21-9.5,26.73-3.18,47.54,12.27,40.47,31,57.64,60.5,88.6,10.49,11,26,19.25,38.29,28.17,17,12.4,20.38,21.37,29.21,41.11,4.47,10-13.65,24.6-13,35.8,1.48,26.59,5.76,28.05,26.61,45.19,26.31,21.64,61.63,15.67,92.16,13.18,36.31-3,71.27-3.71,107.72-3.34-5.63,30.63-13.49,46.28,10.91,69.69,24,23,22.57,17.91,24.85,53.56l12.42,194.9c30.75-22.5,28.86-14,54.84,13l3.63-32.11c3.36,4.53,10.1,6.5,13.64,10.9l10.3-21.51,21.51,27.27c3.9-6.74,13.53-32.67,20.31-35.15,7.78-2.84,35.19,12.2,43.49,15.08,4.15,1.44,27.27-70,30.67-79.49,6.24-17.41-8.7-58.26-11.53-76.12l-14.76-93.08c25.7,31.63,43.11,37.51,84.3,33.06,31-3.35-6.71-58.5-8.55-77.9,32.58,5.16,62.44,10.87,95.29,8.93,15.41-.9,39.53,2.57,29.55-22.57-4.78-12-30-26.37-40-35.15,46.72-8.13,151.13-29.58,133.32-99.38-5.69-22.31-15.35-13.6,1-34.09,7.24-9.08,26.88-25.62,28.66-37.31C1966.47,1440.29,1982.45,1385,1964.24,1366.4Zm-29.45-129.86c7.73,36.68,32.88,107.09,11.55,142.65-13.84,23.06-27.09,46.42-40.37,69.81-10.82,19.07-35,33.46-51.34,47.85,0-59.44,13.07-94.42,38.36-148,11.29-23.9,18.17-49.93,26.58-75,6.79-20.2-.3-45.47-2.52-66.45Q1925.92,1222,1934.79,1236.54Zm-58.88-65.94c80.11,63,11.17,166.35-21.28,238.3q-26.89-30.93-53.58-62c-17-19.88,13.6-53.68,24.64-75,10.47-20.24,13.34-54.47,13.34-77.59C1839,1154.11,1841.48,1142.25,1875.91,1170.6Zm-445.4-122c15.33-23.62,22.61-41.42,48.31-52.48s48.7-8.51,76.89-8.51c48.12,0,87.55,43.1,120.2,73.76-17.4,2.67-35.6,23.93-49.06,34.58s-2.69,38.38-18.81,50.1c-6.49,4.73-19.16,10.43-22.55,18-3.85,8.57-8,29.26-18.1,29.26-20,0-40.39,5.21-59.31,11.19-18.4,5.81-17.8-24.45-24.82-39.14-9.58-20-17.52-39.42-38.12-50.92-9.51-5.31-51.51-8.18-51.51-17.38C1393.63,1073.14,1411.8,1060.23,1430.51,1048.61ZM1417.75,1016c1.83-9.18,2.88-40.56,11.63-43.66,17.9-6.34,33.79-9.52,51.36-.73,26.31,13.15-19.42,20.82-20.92,22.34-13.6,13.87-23.62,27.56-34.48,43.73ZM1494,984c-2.6-17.82,47.64-34.65,55.14-16.6C1561,995.76,1511.39,984,1494,984Zm61-27.55c21.84-11.71,24.71-18.57,45.32-4.54,15.22,10.37,13.28,29.64,14.68,47-12.51-5.72-24.9-11.83-37.57-17.17-5.18-2.18-15.84,6.68-17.35-.63Q1557.57,968.76,1555,956.41Zm-96,364.37c7.79-22,21.62-82,41.28-94.54,30.25-19.25,58.94-26.53,94.5-13.73,37.45,13.48,59.06,34.62,82.26,66.17,9.17,12.48,16.4,27.79,22.22,42.1,8.62,21.18,8.12,23-10.37,39.11-32,27.77-53.42,48.88-75.94,84.44-20.4,32.2-39.53,64.88-76.42,38.86-22.15-15.62-56.25-47.49-69.19-71.45-10.31-19.1-5.81-27.59-23.16-42.65C1429.55,1356.34,1450.63,1336,1459.05,1320.78Zm-35.63,25c-30.83,8.14-60.38,2.77-89.36,16.3-.13-14.83-16.1-18-27.69-24.38-6.87-3.78-12.55-21.94-14-29.79-3.48-18.25-32.55-64.3-29.78-70.67,20.15-46.21,41-126.23,101-126.23,16.35,0,64.5-1.52,73.74,9.82,21.36,26.21,31,40.1,39.81,72.44C1490.35,1242,1447.07,1302.17,1423.42,1345.8Zm268.09-75.08c-21.23-17.83-46.9-51-70.92-63.24-14.21-7.21-36.88,1-36.88-18,0-14.72,17.93-29,28.37-37.35,17.39-13.92,16.63-24.07,20.88-46.18,1.78-9.27,27.13-25.57,34.55-32.23,28.54-25.6,66.87,5.54,95.34,17.58,16.47,7,63.41,44.18,63.41,61a587.53,587.53,0,0,1-9.65,108.92c-2.89,16.12-17.17,34.43-24.62,48.94-8.31,16.16-22.55,15-40.09,19.55-24,6.21-22.91,10.6-34.19-10.36Q1704.6,1295.05,1691.51,1270.72Zm-281.57-222.11c-8.18,10.92-27,48.94-38.58,48.94-30.45,0-41.52,16.75-65.15,34.84-22.35,17.11-25.57,41.46-37.4,66.58-3.94,8.36-12.21,33.12-19.86,37.59-20.24,11.83-24.12-4.78-24.12-18.55,0-54.56,30-101.55,62.16-141.77,20.91-26.13,29.58-35.09,59.84-48.91,30.82-14.08,44.49-6.44,70.92,14.9Zm-163,197.93c25,18.09,31.47,33.58,37.31,63.73,1.73,9,8.85,25.91,15.11,32.32s27.57,8.53,27.57,18.15c0,23.3-35.72,48.61-50.92,65.29-7.4,8.12-9.24,21.79-12.68,32-5.7,16.87-14.72,20.37-29.7,30.74-21.49,14.87-34.78-23.39-42.88-42.62-12.47-29.61-18.58-49.26-14.24-81.09,3.76-27.53,1.72-54,7.56-81.42C1192.1,1246.11,1213.29,1243,1247,1246.54Zm34.74,183.68c28.08-28.2,52.09-62.83,94.34-65.34,14.07-.84,37.26-9.8,47.34-.28,18,17,20.39,29,33.2,47.9,25.94,38.35,51.63,62.51,88.58,90.2-7.85-5.87.28,47.55.92,49.77,5.36,18.62,12.26,36.88,18.42,55.25-14.92-12.78-24.63-24.85-36.1-40.89-4.71-6.59-44,5.45-51.82,6.82-18.36,3.24-32,5.42-48.41,13.88-12.79,6.61-37.08-6.74-53-9-37.25-5.33-61-31.84-86.68-57C1259.51,1493,1272.32,1467.36,1281.72,1430.22Zm165.81,157.9,58.21-9.16c25.25-4,14.65,4.76,31.3,21.44,6.59,6.6,89.06,45.43,54.41,54.09-59.25,14.81-157.82,21.12-192.14-39.91Zm136.18,29.3c-7.18-18.23-43.62-80-35.46-96.5,11.45-23.15,20.79-11.19,40.34-24.07,14.5-9.56,27.29-37.36,37.46-51.27,23.35-32,46.37-53.67,76.49-79.81,20.84-18.08,61.26-41.14,83-14.58,23.36,28.5,53.59,51.23,53.59,88.42,0,13.78,6.41,45.41,0,57.24-7.77,14.32-41.68,28.77-55.28,38.16-26.65,18.4-61.63,25.12-90.43,40.06C1657.25,1593.85,1622.79,1605.39,1583.71,1617.42Zm75.18-9.93c36.87-15.85,74.22-30,108.76-50.48l71.21-42.19c13.16-7.8,14,34.39,4.27,43.7-38.09,36.64-70.55,60.25-116.45,86.62-13.41,7.7-49.45.65-64.67.65-31.92,0-35.11,2.46-55.61-22Zm-25.54-666.68c37.17,0,42.14,4.72,70.14,29.87,7.44,6.68,11.3,15.44,20.72,19.3,15.13,6.21,36.36,10.74,49.57,20.34,19.15,13.92,117.68,113.89,69.3,131.83-12.67,4.7-41.6-41.57-55-50.31-26.52-17.22-54.87-26.06-83.55-39.32-8.92-4.13-16.58,6-24.86-1.25q-21.86-19.26-43.7-38.53C1615.13,994.42,1625.72,962.45,1633.35,940.81Zm-13.16-12.64c8.37,13.49.77,28-2.76,42,4.53-26-23.46-16.38-28.37-33C1582.25,914,1611.93,924.51,1620.19,928.17ZM1555,900.75a76.54,76.54,0,0,0,40.82,10.71c-11.83,29.25-44.69-1.89-61.07-13.23C1541.47,899.06,1548.4,899.44,1555,900.75Zm-21.4,6.84,48.48,27.27c-15.78,7.22-31.12,15.55-48.28,19C1531.37,937.87,1527.06,923.17,1533.62,907.59Zm-16,3.2c4.24,13,5.29,26.63,7.22,40.1,1.26,8.84-31.76,17.16-37.64,15.45C1450.74,955.77,1504.66,921.06,1517.66,910.79Zm-66.58,5.09c5.15-3.44,53.35-30.29,53.35-11.94,0,19-27.82,23.47-34.44,43.44,2.3-18.92.5-31-21.82-25.83Zm12.85,11.3c3.78,17.83-5.65,26.32-19.72,33.74-18.52,9.78-22.63-1.53-39.06-7.58C1419.58,937,1442.15,926.19,1463.93,927.18Zm-120.71,29.23c26.88-23.35,57.56-29,91.72-37.22-24.31,32.08-59.79,30.55-91.72,47.15Zm-8,17c22-6.06,52.9-20,73.84-8.73,23.93,12.85-6.72,41.72,3.76,64.41-22.29-11.33-32.92-21.54-56.88-14.16C1330.68,1022.75,1318.06,990.37,1335.25,973.44Zm-118.93,117.73c29.67-45.29,57.88-65.89,105-92.2,7.32,20.22,7.67,28.31-11.35,36.52-21.24,9.18-29.49,25.36-43.4,44-21.52,28.83-33.71,56.45-41.71,91.11-4.27-15.67-3.7-35.74-24.11-36.88Zm-56.74,89.36c7.06-7.06,30-36.53,41.14-36.88,24.21-.76,15.6,34.34,15.6,49.11,0,9.59,2.92,24.08,0,33.16-5.3,16.55-7.16,8-21.27,19.78-16.4,13.69-18.81,40.64-22.7,59.66C1164.33,1262.12,1159.58,1224.42,1159.58,1180.53Zm-66.66,156c-10.29-25.14-18.16-53,.51-78.24,9.46-12.83,43.62-62.58,55.29-20,7.48,27.28,23.63,62.24,23.63,90.58,0,32.65-5.23,60,0,92.75-14.95-16-26.4-27.16-45.13-38.21C1103.6,1369.52,1101.81,1363.77,1092.92,1336.56Zm97.87,212.77a1000.56,1000.56,0,0,1-87.28-78.52c-14.51-14.63-38.9-84.6-5.78-84.6,34.86,0,68.21,33,86.45,61.8,5.85,9.24,31.33,38.28,32.14,48.84C1217.21,1508.37,1195.62,1539,1190.79,1549.33Zm9.93,1.42c18.15-28.39,31-42.76,58.16-62.74-6.82,28.45,30.74,59.09,52.74,72.2,12.9,7.69,32.72,25.75,47.88,27.26,17.37,1.74,34.31,2.17,50.44,9.52l-26.24,11.92c7.36,10.53,14.11,21.49,20.51,32.62-40,0-82.53-1.76-121.5-11.78-21.18-5.45-43-5.51-56-23.55C1212.59,1586.63,1207.08,1574.09,1200.72,1550.75Zm158.87,120.57c-35.38,2.79-77.63,14.15-111.53,2.39-19.57-6.8-29.51-13.23-45.55-26.45-2.8-2.3-4.12-21-1.79-23.46,3.19-3.39,28.08,0,33,0,17.73,0,35.25,10.59,51.6,17,15.17,5.93,36,3.38,52.25,5.26,38.47,4.45,73.61-3,108.73,11.77C1422.44,1679.38,1390.35,1671.32,1359.59,1671.32Zm73.76,70.92c-18.58-25.33-15.53-41.86,8.11-63.93,18.65-17.4,66.58-7,91.3-7,19.51,0-27.78,41.28-34.7,45-13.56,7.39-19.1,14.14-29,26.36C1455.41,1759.48,1452.4,1751.71,1433.35,1742.24Zm219.49,156.06q-10.86,33.1-21.7,66.19L1589.51,1950c-4.29-1.49-14.66,28.13-17,33.39l-24.58-34L1537,1979.62l-19.37-17v34c-21.41-24.7-19.34-32.66-45.39-11.35q-3.88-87.64-7.79-175.29c-.9-20.23-5.85-35.51,6.49-51.51,18-23.29,34.69-27.33,56.94-45.32,7.26-5.88,13.42-22.25,22-25.46,9.09-3.42,33.62,5.79,43.15,7.44,20.11,3.46,33.16,9.51,36.08,30.73Q1641,1812.1,1652.84,1898.3Zm77.68-153.22c-5.12,16.16-26.29,10.93-40.22,8.09-29-5.92-31.38-13.38-48.52-38.08-8.82-12.71-18.28-28.25-34-28.25-18,0-39.06-1-51.83-15.52,39.38-4.43,70-5.49,109,1,26.54,4.4,39.07-1.65,42.37,25.61C1709.43,1715.58,1721.47,1729.91,1730.52,1745.08Zm71.58-95.39c3,2.69,36.87,33.14,26.29,33.14-22.65,0-44.44.22-66.87-2.68-41.61-5.38-79.46-8.6-118.29-24.88,28.83,0,56.66,0,85.27-3.26,19-2.17,25.28-5.61,41.47-16.54C1782.46,1627.05,1791.09,1641.15,1802.1,1649.69Zm120.62-111.62c0,72.93-82.23,80.41-139,85.73,23.69-19.86,53.12-40.09,70.92-66,13.34-19.36,7.55-19.77,32.81-19.77C1903.59,1538.07,1911.83,1510,1922.72,1538.07Zm35.46-119.24c-6.17,38.39-11.88,49.91-36.84,79.94-4.75,5.72-56.78,52.21-56.78,26.44,0-30.28,30.37-44.34,46.81-66.62,18.18-24.62,28.15-54.59,46.81-79.47Z" transform="translate(-1071.47 -890.59)" fill="#151206" style="mix-blend-mode:screen"/><path d="M1964.24,1366.4c-.86-19.7.84-41.19-3.4-60.48-4.38-20-4.9-60.76-17.45-76.64-14.42-18.25-27.82-38.43-43.89-55.24-27.06-28.32-31.52-34.79-35.41-73.67-1.88-18.81-27.89-36.94-40.15-50.2-13.91-15.06-31.27-43.84-51-51.26-25-9.45-43-15.42-62.66-32.77-22.39-19.81-32.58-32.12-62.06-32.12-23.94,0-24.11-27.84-48.12-29.58-26.66-1.93-48.39-11.86-75.51-13.59-17.76-1.13-49.6,1.26-63.62,11.38-20.91,15.08-45,14.6-70,21.49-51.5,14.18-51.88,56.31-90.62,78.61-43.86,25.25-78.91,53.9-97.67,102.66-4.69,12.2-14.76,24.49-5.93,33.56a272.1,272.1,0,0,0-38.63,33.32c-12.44,12.74-6.52,36.16-6.52,53.33-20.09-9.17-21.61-13.56-38.86.3-9.13,7.34-24.87,25.1-28,36.23-3.58,12.92-14.6,34.23-13.16,47.41,1.63,14.94,14.9,29.76,17.65,45.76,1,5.55,5.2,16.81,3.86,22.41-.74,3.09-10.74,2.54-12.25,7-7.09,21-9.5,26.73-3.18,47.54,12.27,40.47,31,57.64,60.5,88.6,10.49,11,26,19.25,38.29,28.17,17,12.4,20.38,21.37,29.21,41.11,4.47,10-13.65,24.6-13,35.8,1.48,26.59,5.76,28.05,26.61,45.19,26.31,21.64,61.63,15.67,92.16,13.18,36.31-3,71.27-3.71,107.72-3.34-5.63,30.63-13.49,46.28,10.91,69.69,24,23,22.57,17.91,24.85,53.56l12.42,194.9c30.75-22.5,28.86-14,54.84,13l3.63-32.11c3.36,4.53,10.1,6.5,13.64,10.9l10.3-21.51,21.51,27.27c3.9-6.74,13.53-32.67,20.31-35.15,7.78-2.84,35.19,12.2,43.49,15.08,4.15,1.44,27.27-70,30.67-79.49,6.24-17.41-8.7-58.26-11.53-76.12l-14.76-93.08c25.7,31.63,43.11,37.51,84.3,33.06,31-3.35-6.71-58.5-8.55-77.9,32.58,5.16,62.44,10.87,95.29,8.93,15.41-.9,39.53,2.57,29.55-22.57-4.78-12-30-26.37-40-35.15,46.72-8.13,151.13-29.58,133.32-99.38-5.69-22.31-15.35-13.6,1-34.09,7.24-9.08,26.88-25.62,28.66-37.31C1966.47,1440.29,1982.45,1385,1964.24,1366.4Zm-29.45-129.86c7.73,36.68,32.88,107.09,11.55,142.65-13.84,23.06-27.09,46.42-40.37,69.81-10.82,19.07-35,33.46-51.34,47.85,0-59.44,13.07-94.42,38.36-148,11.29-23.9,18.17-49.93,26.58-75,6.79-20.2-.3-45.47-2.52-66.45Q1925.92,1222,1934.79,1236.54Zm-58.88-65.94c80.11,63,11.17,166.35-21.28,238.3q-26.89-30.93-53.58-62c-17-19.88,13.6-53.68,24.64-75,10.47-20.24,13.34-54.47,13.34-77.59C1839,1154.11,1841.48,1142.25,1875.91,1170.6Zm-445.4-122c15.33-23.62,22.61-41.42,48.31-52.48s48.7-8.51,76.89-8.51c48.12,0,87.55,43.1,120.2,73.76-17.4,2.67-35.6,23.93-49.06,34.58s-2.69,38.38-18.81,50.1c-6.49,4.73-19.16,10.43-22.55,18-3.85,8.57-8,29.26-18.1,29.26-20,0-40.39,5.21-59.31,11.19-18.4,5.81-17.8-24.45-24.82-39.14-9.58-20-17.52-39.42-38.12-50.92-9.51-5.31-51.51-8.18-51.51-17.38C1393.63,1073.14,1411.8,1060.23,1430.51,1048.61ZM1417.75,1016c1.83-9.18,2.88-40.56,11.63-43.66,17.9-6.34,33.79-9.52,51.36-.73,26.31,13.15-19.42,20.82-20.92,22.34-13.6,13.87-23.62,27.56-34.48,43.73ZM1494,984c-2.6-17.82,47.64-34.65,55.14-16.6C1561,995.76,1511.39,984,1494,984Zm61-27.55c21.84-11.71,24.71-18.57,45.32-4.54,15.22,10.37,13.28,29.64,14.68,47-12.51-5.72-24.9-11.83-37.57-17.17-5.18-2.18-15.84,6.68-17.35-.63Q1557.57,968.76,1555,956.41Zm-96,364.37c7.79-22,21.62-82,41.28-94.54,30.25-19.25,58.94-26.53,94.5-13.73,37.45,13.48,59.06,34.62,82.26,66.17,9.17,12.48,16.4,27.79,22.22,42.1,8.62,21.18,8.12,23-10.37,39.11-32,27.77-53.42,48.88-75.94,84.44-20.4,32.2-39.53,64.88-76.42,38.86-22.15-15.62-56.25-47.49-69.19-71.45-10.31-19.1-5.81-27.59-23.16-42.65C1429.55,1356.34,1450.63,1336,1459.05,1320.78Zm-35.63,25c-30.83,8.14-60.38,2.77-89.36,16.3-.13-14.83-16.1-18-27.69-24.38-6.87-3.78-12.55-21.94-14-29.79-3.48-18.25-32.55-64.3-29.78-70.67,20.15-46.21,41-126.23,101-126.23,16.35,0,64.5-1.52,73.74,9.82,21.36,26.21,31,40.1,39.81,72.44C1490.35,1242,1447.07,1302.17,1423.42,1345.8Zm268.09-75.08c-21.23-17.83-46.9-51-70.92-63.24-14.21-7.21-36.88,1-36.88-18,0-14.72,17.93-29,28.37-37.35,17.39-13.92,16.63-24.07,20.88-46.18,1.78-9.27,27.13-25.57,34.55-32.23,28.54-25.6,66.87,5.54,95.34,17.58,16.47,7,63.41,44.18,63.41,61a587.53,587.53,0,0,1-9.65,108.92c-2.89,16.12-17.17,34.43-24.62,48.94-8.31,16.16-22.55,15-40.09,19.55-24,6.21-22.91,10.6-34.19-10.36Q1704.6,1295.05,1691.51,1270.72Zm-281.57-222.11c-8.18,10.92-27,48.94-38.58,48.94-30.45,0-41.52,16.75-65.15,34.84-22.35,17.11-25.57,41.46-37.4,66.58-3.94,8.36-12.21,33.12-19.86,37.59-20.24,11.83-24.12-4.78-24.12-18.55,0-54.56,30-101.55,62.16-141.77,20.91-26.13,29.58-35.09,59.84-48.91,30.82-14.08,44.49-6.44,70.92,14.9Zm-163,197.93c25,18.09,31.47,33.58,37.31,63.73,1.73,9,8.85,25.91,15.11,32.32s27.57,8.53,27.57,18.15c0,23.3-35.72,48.61-50.92,65.29-7.4,8.12-9.24,21.79-12.68,32-5.7,16.87-14.72,20.37-29.7,30.74-21.49,14.87-34.78-23.39-42.88-42.62-12.47-29.61-18.58-49.26-14.24-81.09,3.76-27.53,1.72-54,7.56-81.42C1192.1,1246.11,1213.29,1243,1247,1246.54Zm34.74,183.68c28.08-28.2,52.09-62.83,94.34-65.34,14.07-.84,37.26-9.8,47.34-.28,18,17,20.39,29,33.2,47.9,25.94,38.35,51.63,62.51,88.58,90.2-7.85-5.87.28,47.55.92,49.77,5.36,18.62,12.26,36.88,18.42,55.25-14.92-12.78-24.63-24.85-36.1-40.89-4.71-6.59-44,5.45-51.82,6.82-18.36,3.24-32,5.42-48.41,13.88-12.79,6.61-37.08-6.74-53-9-37.25-5.33-61-31.84-86.68-57C1259.51,1493,1272.32,1467.36,1281.72,1430.22Zm165.81,157.9,58.21-9.16c25.25-4,14.65,4.76,31.3,21.44,6.59,6.6,89.06,45.43,54.41,54.09-59.25,14.81-157.82,21.12-192.14-39.91Zm136.18,29.3c-7.18-18.23-43.62-80-35.46-96.5,11.45-23.15,20.79-11.19,40.34-24.07,14.5-9.56,27.29-37.36,37.46-51.27,23.35-32,46.37-53.67,76.49-79.81,20.84-18.08,61.26-41.14,83-14.58,23.36,28.5,53.59,51.23,53.59,88.42,0,13.78,6.41,45.41,0,57.24-7.77,14.32-41.68,28.77-55.28,38.16-26.65,18.4-61.63,25.12-90.43,40.06C1657.25,1593.85,1622.79,1605.39,1583.71,1617.42Zm75.18-9.93c36.87-15.85,74.22-30,108.76-50.48l71.21-42.19c13.16-7.8,14,34.39,4.27,43.7-38.09,36.64-70.55,60.25-116.45,86.62-13.41,7.7-49.45.65-64.67.65-31.92,0-35.11,2.46-55.61-22Zm-25.54-666.68c37.17,0,42.14,4.72,70.14,29.87,7.44,6.68,11.3,15.44,20.72,19.3,15.13,6.21,36.36,10.74,49.57,20.34,19.15,13.92,117.68,113.89,69.3,131.83-12.67,4.7-41.6-41.57-55-50.31-26.52-17.22-54.87-26.06-83.55-39.32-8.92-4.13-16.58,6-24.86-1.25q-21.86-19.26-43.7-38.53C1615.13,994.42,1625.72,962.45,1633.35,940.81Zm-13.16-12.64c8.37,13.49.77,28-2.76,42,4.53-26-23.46-16.38-28.37-33C1582.25,914,1611.93,924.51,1620.19,928.17ZM1555,900.75a76.54,76.54,0,0,0,40.82,10.71c-11.83,29.25-44.69-1.89-61.07-13.23C1541.47,899.06,1548.4,899.44,1555,900.75Zm-21.4,6.84,48.48,27.27c-15.78,7.22-31.12,15.55-48.28,19C1531.37,937.87,1527.06,923.17,1533.62,907.59Zm-16,3.2c4.24,13,5.29,26.63,7.22,40.1,1.26,8.84-31.76,17.16-37.64,15.45C1450.74,955.77,1504.66,921.06,1517.66,910.79Zm-66.58,5.09c5.15-3.44,53.35-30.29,53.35-11.94,0,19-27.82,23.47-34.44,43.44,2.3-18.92.5-31-21.82-25.83Zm12.85,11.3c3.78,17.83-5.65,26.32-19.72,33.74-18.52,9.78-22.63-1.53-39.06-7.58C1419.58,937,1442.15,926.19,1463.93,927.18Zm-120.71,29.23c26.88-23.35,57.56-29,91.72-37.22-24.31,32.08-59.79,30.55-91.72,47.15Zm-8,17c22-6.06,52.9-20,73.84-8.73,23.93,12.85-6.72,41.72,3.76,64.41-22.29-11.33-32.92-21.54-56.88-14.16C1330.68,1022.75,1318.06,990.37,1335.25,973.44Zm-118.93,117.73c29.67-45.29,57.88-65.89,105-92.2,7.32,20.22,7.67,28.31-11.35,36.52-21.24,9.18-29.49,25.36-43.4,44-21.52,28.83-33.71,56.45-41.71,91.11-4.27-15.67-3.7-35.74-24.11-36.88Zm-56.74,89.36c7.06-7.06,30-36.53,41.14-36.88,24.21-.76,15.6,34.34,15.6,49.11,0,9.59,2.92,24.08,0,33.16-5.3,16.55-7.16,8-21.27,19.78-16.4,13.69-18.81,40.64-22.7,59.66C1164.33,1262.12,1159.58,1224.42,1159.58,1180.53Zm-66.66,156c-10.29-25.14-18.16-53,.51-78.24,9.46-12.83,43.62-62.58,55.29-20,7.48,27.28,23.63,62.24,23.63,90.58,0,32.65-5.23,60,0,92.75-14.95-16-26.4-27.16-45.13-38.21C1103.6,1369.52,1101.81,1363.77,1092.92,1336.56Zm97.87,212.77a1000.56,1000.56,0,0,1-87.28-78.52c-14.51-14.63-38.9-84.6-5.78-84.6,34.86,0,68.21,33,86.45,61.8,5.85,9.24,31.33,38.28,32.14,48.84C1217.21,1508.37,1195.62,1539,1190.79,1549.33Zm9.93,1.42c18.15-28.39,31-42.76,58.16-62.74-6.82,28.45,30.74,59.09,52.74,72.2,12.9,7.69,32.72,25.75,47.88,27.26,17.37,1.74,34.31,2.17,50.44,9.52l-26.24,11.92c7.36,10.53,14.11,21.49,20.51,32.62-40,0-82.53-1.76-121.5-11.78-21.18-5.45-43-5.51-56-23.55C1212.59,1586.63,1207.08,1574.09,1200.72,1550.75Zm158.87,120.57c-35.38,2.79-77.63,14.15-111.53,2.39-19.57-6.8-29.51-13.23-45.55-26.45-2.8-2.3-4.12-21-1.79-23.46,3.19-3.39,28.08,0,33,0,17.73,0,35.25,10.59,51.6,17,15.17,5.93,36,3.38,52.25,5.26,38.47,4.45,73.61-3,108.73,11.77C1422.44,1679.38,1390.35,1671.32,1359.59,1671.32Zm73.76,70.92c-18.58-25.33-15.53-41.86,8.11-63.93,18.65-17.4,66.58-7,91.3-7,19.51,0-27.78,41.28-34.7,45-13.56,7.39-19.1,14.14-29,26.36C1455.41,1759.48,1452.4,1751.71,1433.35,1742.24Zm219.49,156.06q-10.86,33.1-21.7,66.19L1589.51,1950c-4.29-1.49-14.66,28.13-17,33.39l-24.58-34L1537,1979.62l-19.37-17v34c-21.41-24.7-19.34-32.66-45.39-11.35q-3.88-87.64-7.79-175.29c-.9-20.23-5.85-35.51,6.49-51.51,18-23.29,34.69-27.33,56.94-45.32,7.26-5.88,13.42-22.25,22-25.46,9.09-3.42,33.62,5.79,43.15,7.44,20.11,3.46,33.16,9.51,36.08,30.73Q1641,1812.1,1652.84,1898.3Zm77.68-153.22c-5.12,16.16-26.29,10.93-40.22,8.09-29-5.92-31.38-13.38-48.52-38.08-8.82-12.71-18.28-28.25-34-28.25-18,0-39.06-1-51.83-15.52,39.38-4.43,70-5.49,109,1,26.54,4.4,39.07-1.65,42.37,25.61C1709.43,1715.58,1721.47,1729.91,1730.52,1745.08Zm71.58-95.39c3,2.69,36.87,33.14,26.29,33.14-22.65,0-44.44.22-66.87-2.68-41.61-5.38-79.46-8.6-118.29-24.88,28.83,0,56.66,0,85.27-3.26,19-2.17,25.28-5.61,41.47-16.54C1782.46,1627.05,1791.09,1641.15,1802.1,1649.69Zm120.62-111.62c0,72.93-82.23,80.41-139,85.73,23.69-19.86,53.12-40.09,70.92-66,13.34-19.36,7.55-19.77,32.81-19.77C1903.59,1538.07,1911.83,1510,1922.72,1538.07Zm35.46-119.24c-6.17,38.39-11.88,49.91-36.84,79.94-4.75,5.72-56.78,52.21-56.78,26.44,0-30.28,30.37-44.34,46.81-66.62,18.18-24.62,28.15-54.59,46.81-79.47Z" transform="translate(-1071.47 -890.59)" fill="#151206" style="mix-blend-mode:multiply"/></g></g></svg>
