<?xml version="1.0" encoding="UTF-8" standalone="no"?>
<svg
   xmlns:dc="http://purl.org/dc/elements/1.1/"
   xmlns:cc="http://creativecommons.org/ns#"
   xmlns:rdf="http://www.w3.org/1999/02/22-rdf-syntax-ns#"
   xmlns:svg="http://www.w3.org/2000/svg"
   xmlns="http://www.w3.org/2000/svg"
   xmlns:sodipodi="http://sodipodi.sourceforge.net/DTD/sodipodi-0.dtd"
   xmlns:inkscape="http://www.inkscape.org/namespaces/inkscape"
   id="Calque_1"
   data-name="Calque 1"
   viewBox="0 0 1834.2599 21.080416"
   version="1.1"
   sodipodi:docname="line.svg"
   width="1834.2599"
   height="21.080416"
   inkscape:version="0.92.4 (5da689c313, 2019-01-14)">
  <metadata
     id="metadata15">
    <rdf:RDF>
      <cc:Work
         rdf:about="">
        <dc:format>image/svg+xml</dc:format>
        <dc:type
           rdf:resource="http://purl.org/dc/dcmitype/StillImage" />
        <dc:title>barre haut</dc:title>
      </cc:Work>
    </rdf:RDF>
  </metadata>
  <sodipodi:namedview
     pagecolor="#ffffff"
     bordercolor="#666666"
     borderopacity="1"
     objecttolerance="10"
     gridtolerance="10"
     guidetolerance="10"
     inkscape:pageopacity="0"
     inkscape:pageshadow="2"
     inkscape:window-width="1920"
     inkscape:window-height="1052"
     id="namedview13"
     showgrid="false"
     inkscape:zoom="0.97672222"
     inkscape:cx="702.62413"
     inkscape:cy="10.536948"
     inkscape:window-x="0"
     inkscape:window-y="28"
     inkscape:window-maximized="0"
     inkscape:current-layer="Calque_1" />
  <defs
     id="defs4">
    <style
       id="style2">.cls-1{fill:#f5c588;}</style>
  </defs>
  <title
     id="title6">barre haut</title>
  <path
     class="cls-1"
     d="m 1176.717,17.173468 v -0.11 c 13.11,0 26.22,0.14 39.33,0 48.77,-0.61 97.51,1 146.26,2 48.53,1.05 97.07,1.18 145.61,1.64 17.31,0.16 34.62,0.16 51.93,0.16 59.6,0 119.2,0.19 178.79,-0.19 28.35,-0.19 56.68,-1.52 85,-2.36 2.72,-0.08 5.44,-0.39 8.15,-0.57 1.55,-0.11 2.57,-0.71 2.43,-2.44 -0.26,-3.29 -0.51,-6.58 -0.85,-9.86 a 3.24,3.24 0 0 0 -0.84,-1.47 c -2.27,-2.82 -5.4,-3.63 -8.82,-3.63 -13.19,0 -26.37,0.05 -39.56,0 -15.24,-0.06 -30.48,-0.36 -45.72,-0.28 -15.84,0.09 -31.67,0.47 -47.51,0.8 -21.06,0.44 -42.11,1.18 -63.18,1.39 -32.92,0.34 -65.85,0.3 -98.78,0.49 -29.31,0.16 -58.63,0.58 -87.94,0.59 -21.88,0 -43.76,-0.45 -65.63,-0.64 -3.68,0 -7.37,0.17 -11,0.42 -9.91,0.69 -19.81,1.95 -29.73,2.11 -42.12,0.68 -84.26,1.09 -126.39,1.51 -46.18,0.47 -92.37,0.76 -138.55,1.28 -46.18,0.52 -92.06995,1.41 -138.10995,1.81 q -63.53,0.54 -127.07,0.31 c -26.8,-0.12 -53.61,-0.9 -80.4,-1.64 -10.51,-0.29 -21,-1.36 -31.5,-1.88 -4.85,-0.24 -9.72,0 -14.59,0 -41,-0.17 -82,0.5 -123,-2.24 -9.76,-0.65 -19.58,-0.42 -29.38,-0.56 -47.5,-0.7 -95,-1.61 -142.52,-2 -28.65,-0.24 -57.3,0.42 -86,0.51 -30.65,0.1 -61.29,-0.08 -91.93,0 q -59.9,0.15 -119.770004,0.53 c -26.44,0.21 -52.88,0.78 -79.3199995,1.2 -1.47,0 -2.94,0.17 -4.41,0.3 -1.47000001,0.13 -1.72000001,0.87 -1.51000001,2.29 a 14.44,14.44 0 0 1 -0.08,4.64 c -0.51,2.75 0.5,4.14 3.31000001,4.08 0.73,0 1.47,-0.06 2.21,-0.07 q 49.3799995,-0.36 98.7700035,-0.72 70.28,-0.42 140.55,-0.76 42.21,-0.18 84.42,-0.1 c 43.39,0.08 86.78,0 130.16,0.5 31.73,0.39 63.46,1.78 95.19,2.61 28.27,0.74 56.55,1.33 84.83,2 33.06,0.78 66.12,2.13 99.19,2.21 71.16,0.18 142.31,-0.19 213.47,-0.56 23.35,-0.12 46.69,-1.11 69.99995,-1.43 q 77.25,-1.1 154.49,-1.87 z"
     id="path8"
     inkscape:connector-curvature="0"
     style="fill:#f5c588" />
  <path
     class="cls-1"
     d="m 1176.717,17.173468 q -77.24,0.9 -154.46,1.82 c -23.34995,0.32 -46.68995,1.31 -69.99995,1.43 -71.16,0.37 -142.31,0.74 -213.47,0.56 -33.07,-0.08 -66.13,-1.43 -99.19,-2.21 -28.28,-0.66 -56.56,-1.25 -84.83,-2 -31.73,-0.83 -63.46,-2.22 -95.19,-2.61 -43.38,-0.54 -86.77,-0.42 -130.16,-0.5 q -42.21,-0.06 -84.42,0.1 -70.27,0.3 -140.55,0.76 -49.380004,0.31 -98.7700035,0.72 c -0.74,0 -1.48,0.06 -2.21,0.07 -2.81000001,0.06 -3.82000001,-1.33 -3.31000001,-4.08 a 14.44,14.44 0 0 0 0.08,-4.64 c -0.21,-1.42 0.09,-2.15 1.51000001,-2.29 1.42,-0.14 2.94,-0.28 4.41,-0.3 26.4399995,-0.42 52.8799995,-1 79.3199995,-1.2 q 59.880004,-0.47 119.770004,-0.53 c 30.64,-0.07 61.28,0.11 91.93,0 28.65,-0.09 57.3,-0.75 86,-0.51 47.51,0.39 95,1.3 142.52,2 9.8,0.14 19.62,-0.09 29.38,0.56 41,2.74 82,2.07 123,2.24 4.87,0 9.74,-0.21 14.59,0 10.5,0.52 21,1.59 31.5,1.88 26.79,0.74 53.6,1.52 80.4,1.64 q 63.54,0.28 127.07,-0.31 c 46,-0.4 92.06995,-1.29 138.10995,-1.81 46.04,-0.52 92.37,-0.81 138.55,-1.28 42.13,-0.42 84.27,-0.83 126.39,-1.51 9.92,-0.16 19.82,-1.42 29.73,-2.11 3.67,-0.25 7.36,-0.45 11,-0.42 21.87,0.19 43.75,0.66 65.63,0.64 29.31,0 58.63,-0.43 87.94,-0.59 32.93,-0.19 65.86,-0.15 98.78,-0.49 21.07,-0.21 42.12,-0.95 63.18,-1.39 15.84,-0.33 31.67,-0.71 47.51,-0.8 15.24,-0.08 30.48,0.22 45.72,0.28 13.19,0.05 26.37,0 39.56,0 3.42,0 6.55,0.81 8.82,3.63 a 3.24,3.24 0 0 1 0.84,1.47 c 0.34,3.28 0.59,6.57 0.85,9.86 0.14,1.73 -0.88,2.33 -2.43,2.44 -2.71,0.18 -5.43,0.49 -8.15,0.57 -28.34,0.84 -56.67,2.17 -85,2.36 -59.59,0.38 -119.19,0.18 -178.79,0.19 -17.31,0 -34.62,0 -51.93,-0.16 -48.54,-0.46 -97.08,-0.59 -145.61,-1.64 -48.75,-1 -97.49,-2.63 -146.26,-2 -13.11,0.16 -26.22,0 -39.33,0 z"
     id="path10"
     inkscape:connector-curvature="0"
     style="fill:#f5c588" />
</svg>
